<?xml version="1.0" encoding="UTF-8" standalone="no"?><!DOCTYPE svg PUBLIC "-//W3C//DTD SVG 1.1//EN" "http://www.w3.org/Graphics/SVG/1.1/DTD/svg11.dtd"><svg width="100%" height="100%" viewBox="0 0 1440 900" version="1.1" xmlns="http://www.w3.org/2000/svg" xmlns:xlink="http://www.w3.org/1999/xlink" xml:space="preserve" xmlns:serif="http://www.serif.com/" style="fill-rule:evenodd;clip-rule:evenodd;"><g><g><g><clipPath id="_clip1"><rect x="0" y="0" width="1440" height="900"/></clipPath><g clip-path="url(#_clip1)"><rect x="0" y="0" width="1440" height="900" style="fill:#fff;"/><g><g><g><clipPath id="_clip2"><path d="M733.038,429.568l-94.724,23.637l136.871,-111.7l-42.147,88.063Z"/></clipPath><g clip-path="url(#_clip2)"><path d="M873.08,387.102l-810.718,-555.028m810.772,563.91l-810.717,-555.028m810.764,563.906l-810.718,-555.027m810.766,563.906l-810.718,-555.026m810.768,563.909l-810.717,-555.029m810.767,563.907l-810.718,-555.028m810.766,563.908l-810.718,-555.027m810.764,563.906l-810.716,-555.028m810.765,563.909l-810.717,-555.028m810.766,563.908l-810.718,-555.028m810.769,563.907l-810.717,-555.027m810.765,563.908l-810.717,-555.028m810.765,563.907l-810.718,-555.028m810.767,563.908l-810.717,-555.028m810.766,563.907l-810.717,-555.029m810.765,563.91l-810.717,-555.028m810.767,563.906l-810.717,-555.027m810.763,563.908l-810.716,-555.028m810.767,563.909l-810.718,-555.028m810.766,563.906l-810.718,-555.027m810.766,563.907l-810.717,-555.028m810.766,563.909l-810.717,-555.028m810.767,563.907l-810.717,-555.028m810.764,563.908l-810.716,-555.028m810.766,563.91l-810.717,-555.027m810.766,563.904l-810.718,-555.028m810.765,563.908l-810.717,-555.027m810.766,563.907l-810.717,-555.028m810.767,563.907l-810.717,-555.027m810.765,563.91l-810.717,-555.029m810.764,563.901l-810.715,-555.024m810.768,563.912l-810.719,-555.031m810.764,563.91l-810.717,-555.028m810.766,563.906l-810.717,-555.027m810.764,563.905l-810.717,-555.025m810.771,563.913l-810.719,-555.033m810.766,563.911l-810.718,-555.033m810.766,563.911l-810.718,-555.03m810.766,563.908l-810.718,-555.027m810.767,563.904l-810.717,-555.027m810.764,563.905l-810.716,-555.023m810.768,563.912l-810.719,-555.032m810.766,563.91l-810.717,-555.03m810.766,563.908l-810.718,-555.028m810.768,563.905l-810.718,-555.026m810.764,563.905l-810.715,-555.025m810.763,563.903l-810.716,-555.024m810.769,563.912l-810.719,-555.031m810.766,563.909l-810.717,-555.029m810.765,563.907l-810.717,-555.028m810.765,563.906l-810.717,-555.026m810.765,563.904l-810.715,-555.023m810.766,563.912l-810.718,-555.033m810.767,563.91l-810.718,-555.031m810.766,563.909l-810.718,-555.03m810.765,563.908l-810.716,-555.027m810.766,563.905l-810.716,-555.024m810.764,563.902l-810.717,-555.025m810.767,563.914l-810.717,-555.033m810.766,563.91l-810.718,-555.028m810.767,563.906l-810.718,-555.029m810.764,563.907l-810.716,-555.024m810.769,563.913l-810.719,-555.032m810.766,563.91l-810.72,-555.032m810.768,563.91l-810.717,-555.032m810.765,563.91l-810.717,-555.029m810.765,563.907l-810.717,-555.027m810.766,563.904l-810.716,-555.024m810.763,563.902l-810.715,-555.024m810.767,563.913l-810.719,-555.032m810.768,563.906l-810.717,-555.025m810.765,563.905l-810.717,-555.027m810.764,563.907l-810.717,-555.026m810.765,563.906l-810.716,-555.027m810.765,563.897l-810.715,-555.017m810.765,563.917l-810.719,-555.035m810.769,563.905l-810.718,-555.027m810.765,563.907l-810.716,-555.028m810.764,563.908l-810.717,-555.026m810.767,563.906l-810.717,-555.027m810.767,563.907l-810.718,-555.028m810.766,563.908l-810.719,-555.028m810.767,563.908l-810.718,-555.03m810.767,563.91l-810.716,-555.028m810.764,563.908l-810.717,-555.029m810.764,563.899l-810.717,-555.021m810.77,563.911l-810.717,-555.029m810.763,563.909l-810.717,-555.029m810.767,563.909l-810.718,-555.03" style="fill:none;fill-rule:nonzero;stroke:#009cd1;stroke-width:2.35px;"/></g></g><g><g><clipPath id="_clip3"><path d="M732.377,431.333l42.199,-88.084l-4.765,178.296l-37.434,-90.212Z"/></clipPath><g clip-path="url(#_clip3)"><path d="M1402.93,796.641l-235.19,-953.94m229.32,960.602l-235.2,-953.94m229.32,960.595l-235.19,-953.941m229.31,960.597l-235.19,-953.94m229.31,960.599l-235.19,-953.94m229.32,960.597l-235.19,-953.94m229.31,960.597l-235.19,-953.941m229.31,960.595l-235.19,-953.94m229.31,960.598l-235.19,-953.94m229.32,960.597l-235.2,-953.94m229.32,960.598l-235.19,-953.939m229.32,960.596l-235.2,-953.94m229.32,960.596l-235.2,-953.941m229.32,960.598l-235.19,-953.94m229.31,960.597l-235.19,-953.941m229.32,960.598l-235.2,-953.94m229.32,960.597l-235.19,-953.94m229.31,960.596l-235.19,-953.94m229.31,960.599l-235.19,-953.941m229.32,960.596l-235.19,-953.94m229.31,960.597l-235.19,-953.941m229.31,960.599l-235.19,-953.941m229.32,960.598l-235.2,-953.941m229.32,960.597l-235.19,-953.94m229.31,960.599l-235.19,-953.94m229.32,960.595l-235.2,-953.941m229.32,960.597l-235.19,-953.939m229.31,960.596l-235.19,-953.94m229.32,960.597l-235.2,-953.939m229.32,960.598l-235.196,-953.94m229.316,960.59l-235.191,-953.936m229.311,960.6l-235.188,-953.942m229.318,960.602l-235.197,-953.944m229.317,960.594l-235.193,-953.938m229.313,960.598l-235.192,-953.942m229.322,960.602l-235.197,-953.942m229.317,960.602l-235.194,-953.948m229.314,960.598l-235.191,-953.941m229.311,960.601l-235.19,-953.943m229.32,960.593l-235.194,-953.937m229.314,960.597l-235.194,-953.94m229.314,960.6l-235.19,-953.942m229.32,960.602l-235.197,-953.945m229.317,960.595l-235.194,-953.938m229.324,960.598l-235.2,-953.941m229.32,960.591l-235.197,-953.935m229.317,960.595l-235.194,-953.939m229.314,960.599l-235.192,-953.94m229.312,960.6l-235.188,-953.943m229.318,960.593l-235.195,-953.937m229.315,960.597l-235.193,-953.94m229.313,960.59l-235.19,-953.932m229.31,960.602l-235.188,-953.946m229.318,960.596l-235.194,-953.94m229.314,960.6l-235.191,-953.944m229.311,960.594l-235.188,-953.936m229.318,960.596l-235.195,-953.937m229.315,960.587l-235.191,-953.934m229.311,960.604l-235.188,-953.945m229.318,960.595l-235.197,-953.937m229.317,960.597l-235.192,-953.942m229.312,960.592l-235.191,-953.933m229.311,960.603l-235.188,-953.945m229.318,960.595l-235.196,-953.941m229.316,960.601l-235.191,-953.944m229.311,960.594l-235.189,-953.937m229.319,960.597l-235.196,-953.94m229.316,960.59l-235.192,-953.932m229.322,960.592l-235.199,-953.937m229.314,960.607l-235.192,-953.95m229.316,960.6l-235.192,-953.941m229.315,960.601l-235.192,-953.946m229.316,960.596l-235.195,-953.939m229.318,960.599l-235.194,-953.942m229.319,960.592l-235.195,-953.934m229.313,960.594l-235.193,-953.938m229.318,960.598l-235.193,-953.941m229.316,960.601l-235.192,-953.944m229.315,960.594l-235.195,-953.937m229.321,960.597l-235.196,-953.939m229.314,960.599l-235.19,-953.943m229.314,960.603l-235.193,-953.947m229.317,960.597l-235.193,-953.941m229.317,960.601l-235.193,-953.941m229.317,960.591l-235.196,-953.936m229.319,960.596l-235.195,-953.941m229.315,960.601l-235.191,-953.941m229.313,960.601l-235.192,-953.945m229.318,960.595l-235.194,-953.938" style="fill:none;fill-rule:nonzero;stroke:#f8c623;stroke-width:2.35px;"/></g></g></g></g><g><g><clipPath id="_clip4"><path d="M751.369,244.777c-11.584,-1.125 -23.249,-1.125 -34.832,-0l-5.737,27.929c-11.103,1.699 -21.984,4.615 -32.449,8.695l-18.932,-21.319c-10.595,4.817 -20.697,10.65 -30.166,17.416l8.996,27.056c-8.765,7.022 -16.731,14.988 -23.754,23.754l-27.055,-8.997c-6.767,9.469 -12.6,19.572 -17.417,30.166l21.319,18.933c-4.08,10.464 -6.996,21.346 -8.695,32.448l-27.928,5.737c-1.126,11.584 -1.126,23.249 0,34.832l27.928,5.737c1.699,11.103 4.615,21.984 8.695,32.449l-21.319,18.932c4.817,10.595 10.65,20.697 17.417,30.166l27.055,-8.996c7.023,8.765 14.989,16.731 23.754,23.754l-8.996,27.055c9.469,6.767 19.571,12.599 30.166,17.416l18.932,-21.318c10.465,4.08 21.346,6.996 32.449,8.694l5.737,27.929c11.583,1.126 23.248,1.126 34.832,0l5.737,-27.929c11.102,-1.698 21.984,-4.614 32.448,-8.694l18.933,21.318c10.594,-4.817 20.697,-10.649 30.165,-17.416l-8.996,-27.055c8.766,-7.023 16.732,-14.989 23.754,-23.754l27.056,8.996c6.766,-9.469 12.599,-19.571 17.416,-30.166l-21.319,-18.932c4.08,-10.465 6.996,-21.346 8.695,-32.449l27.929,-5.737c1.125,-11.583 1.125,-23.248 -0,-34.832l-27.929,-5.737c-1.699,-11.102 -4.615,-21.984 -8.695,-32.448l21.319,-18.933c-4.817,-10.594 -10.65,-20.697 -17.416,-30.166l-27.056,8.997c-7.022,-8.766 -14.988,-16.732 -23.754,-23.754l8.996,-27.056c-9.468,-6.766 -19.571,-12.599 -30.165,-17.416l-18.933,21.319c-10.464,-4.08 -21.346,-6.996 -32.448,-8.695l-5.737,-27.929Zm-17.416,52.604c69.889,-0 126.63,56.741 126.63,126.63c0,69.889 -56.741,126.631 -126.63,126.631c-69.889,0 -126.631,-56.742 -126.631,-126.631c0,-69.889 56.742,-126.63 126.631,-126.63Z"/></clipPath><g clip-path="url(#_clip4)"><path d="M420.217,362.062l340.432,558.797m-337.255,-563.877l340.436,558.797m-337.259,-563.874l340.439,558.797m-337.261,-563.874l340.432,558.796m-337.255,-563.874l340.436,558.796m-337.259,-563.874l340.43,558.796m-337.252,-563.874l340.433,558.796m-337.255,-563.872l340.435,558.795m-337.257,-563.873l340.438,558.796m-337.261,-563.875l340.432,558.797m-337.255,-563.876l340.436,558.797m-337.258,-563.874l340.439,558.797m-337.262,-563.874l340.433,558.796m-337.256,-563.874l340.436,558.797m-337.259,-563.875l340.431,558.797m-337.252,-563.875l340.432,558.797m-337.256,-563.874l340.437,558.797m-337.257,-563.875l340.438,558.797m-337.262,-563.876l340.433,558.797m-337.256,-563.874l340.436,558.797m-337.257,-563.874l340.438,558.797m-337.26,-563.876l340.431,558.797m-337.255,-563.874l340.436,558.797m-337.258,-563.876l340.439,558.797m-337.261,-563.875l340.432,558.796m-337.256,-563.872l340.436,558.797m-337.257,-563.876l340.438,558.797m-337.261,-563.875l340.432,558.797m-337.255,-563.873l340.436,558.796m-337.257,-563.875l340.438,558.796m-337.262,-563.872l340.433,558.796m-337.256,-563.875l340.436,558.797m-337.257,-563.875l340.438,558.796m-337.26,-563.873l340.431,558.797m-337.253,-563.875l340.434,558.797m-337.258,-563.876l340.438,558.797m-337.26,-563.873l340.432,558.797m-337.255,-563.876l340.435,558.797m-337.257,-563.875l340.438,558.797m-337.26,-563.874l340.431,558.797m-337.253,-563.875l340.434,558.796m-337.257,-563.874l340.437,558.797m-337.26,-563.875l340.432,558.797m-337.255,-563.875l340.435,558.796m-337.258,-563.874l340.439,558.797m-337.26,-563.874l340.431,558.797m-337.253,-563.875l340.434,558.797m-337.257,-563.875l340.437,558.797m-337.26,-563.875l340.432,558.796m-337.255,-563.873l340.435,558.797m-337.257,-563.875l340.438,558.796m-337.26,-563.873l340.431,558.795m-337.252,-563.873l340.433,558.796m-337.257,-563.874l340.437,558.796m-337.26,-563.873l340.432,558.796m-337.255,-563.874l340.435,558.796m-337.258,-563.875l340.439,558.797m-337.26,-563.873l340.431,558.797m-337.253,-563.875l340.434,558.796m-337.256,-563.875l340.436,558.797m-337.261,-563.874l340.433,558.796m-337.253,-563.875l340.433,558.797m-337.257,-563.876l340.438,558.796m-337.259,-563.872l340.44,558.797m-337.262,-563.875l340.433,558.797m-337.257,-563.874l340.437,558.796m-337.259,-563.875l340.431,558.797m-337.254,-563.876l340.434,558.797m-337.256,-563.872l340.437,558.796m-337.26,-563.875l340.431,558.797m-337.253,-563.876l340.434,558.797m-337.257,-563.873l340.437,558.797m-337.258,-563.875l340.439,558.797m-337.263,-563.875l340.434,558.797m-337.257,-563.874l340.438,558.796m-337.258,-563.875l340.439,558.796m-337.262,-563.873l340.431,558.796m-337.254,-563.873l340.434,558.796m-337.256,-563.875l340.436,558.797m-337.259,-563.875l340.429,558.797m-337.252,-563.874l340.442,558.797m-337.264,-563.875l340.434,558.797m-337.257,-563.874l340.437,558.797m-337.26,-563.876l340.44,558.797m-337.262,-563.874l340.432,558.797m-337.254,-563.874l340.434,558.796m-337.258,-563.875l340.438,558.797m-337.259,-563.875l340.439,558.796m-337.262,-563.873l340.432,558.797" style="fill:none;fill-rule:nonzero;stroke:#f8c623;stroke-width:1.66px;"/></g></g></g></g><g><g><clipPath id="_clip5"><path d="M66.521,-95.317c95.615,0 173.242,78.211 173.242,174.545c0,96.334 -77.627,174.545 -173.242,174.545c-95.615,-0 -173.243,-78.211 -173.243,-174.545c0,-96.334 77.628,-174.545 173.243,-174.545Zm0,43.636c71.711,0 129.932,58.658 129.932,130.909c0,72.25 -58.221,130.908 -129.932,130.908c-71.712,0 -129.932,-58.658 -129.932,-130.908c0,-72.251 58.22,-130.909 129.932,-130.909Z"/></clipPath><g clip-path="url(#_clip5)"><path d="M-443.104,-276.961l402.124,1042.26m-395.244,-1049.83l402.131,1042.26m-395.25,-1049.83l402.137,1042.26m-395.255,-1049.83l402.126,1042.26m-395.245,-1049.83l402.132,1042.26m-395.252,-1049.83l402.123,1042.26m-395.241,-1049.82l402.128,1042.26m-395.245,-1049.82l402.131,1042.26m-395.249,-1049.83l402.135,1042.26m-395.254,-1049.83l402.126,1042.26m-395.245,-1049.83l402.132,1042.26m-395.25,-1049.83l402.136,1042.26m-395.256,-1049.83l402.127,1042.26m-395.245,-1049.83l402.132,1042.26m-395.252,-1049.83l402.123,1042.26m-395.239,-1049.82l402.126,1042.26m-395.247,-1049.83l402.133,1042.26m-395.248,-1049.83l402.135,1042.26m-395.256,-1049.83l402.127,1042.26m-395.245,-1049.82l402.132,1042.26m-395.249,-1049.83l402.135,1042.26m-395.253,-1049.83l402.125,1042.26m-395.246,-1049.83l402.132,1042.26m-395.25,-1049.83l402.137,1042.26m-395.254,-1049.83l402.125,1042.26m-395.246,-1049.82l402.132,1042.26m-395.248,-1049.83l402.135,1042.26m-395.254,-1049.83l402.125,1042.26m-395.245,-1049.82l402.132,1042.26m-395.248,-1049.83l402.135,1042.26m-395.257,-1049.82l402.128,1042.26m-395.246,-1049.83l402.132,1042.26m-395.248,-1049.83l402.135,1042.26m-395.253,-1049.83l402.124,1042.26m-395.242,-1049.83l402.128,1042.26m-395.249,-1049.83l402.136,1042.26m-395.253,-1049.83l402.124,1042.26m-395.243,-1049.83l402.13,1042.26m-395.248,-1049.83l402.135,1042.26m-395.254,-1049.83l402.125,1042.26m-395.242,-1049.83l402.129,1042.26m-395.249,-1049.83l402.135,1042.26m-395.253,-1049.83l402.124,1042.26m-395.243,-1049.83l402.13,1042.26m-395.25,-1049.83l402.137,1042.26m-395.254,-1049.83l402.125,1042.26m-395.243,-1049.83l402.129,1042.26m-395.248,-1049.83l402.135,1042.26m-395.254,-1049.83l402.125,1042.26m-395.244,-1049.82l402.131,1042.26m-395.249,-1049.83l402.135,1042.26m-395.253,-1049.83l402.125,1042.26m-395.241,-1049.82l402.127,1042.26m-395.248,-1049.83l402.135,1042.26m-395.254,-1049.82l402.125,1042.26m-395.244,-1049.83l402.13,1042.26m-395.249,-1049.83l402.136,1042.26m-395.253,-1049.82l402.124,1042.26m-395.242,-1049.83l402.129,1042.26m-395.247,-1049.83l402.134,1042.26m-395.255,-1049.83l402.126,1042.26m-395.241,-1049.83l402.128,1042.26m-395.248,-1049.83l402.135,1042.26m-395.252,-1049.82l402.138,1042.26m-395.256,-1049.83l402.127,1042.26m-395.247,-1049.83l402.133,1042.26m-395.251,-1049.83l402.123,1042.26m-395.242,-1049.83l402.129,1042.26m-395.248,-1049.82l402.134,1042.26m-395.253,-1049.83l402.124,1042.26m-395.242,-1049.83l402.129,1042.26m-395.247,-1049.82l402.133,1042.26m-395.25,-1049.83l402.137,1042.26m-395.258,-1049.83l402.129,1042.26m-395.248,-1049.83l402.135,1042.26m-395.25,-1049.83l402.137,1042.26m-395.257,-1049.83l402.128,1042.26m-395.246,-1049.82l402.132,1042.26m-395.25,-1049.83l402.137,1042.26m-395.256,-1049.83l402.127,1042.26m-395.247,-1049.82l402.133,1042.26m-395.251,-1049.83l402.138,1042.26m-395.258,-1049.83l402.129,1042.26m-395.246,-1049.83l402.133,1042.26m-395.252,-1049.83l402.123,1042.26m-395.241,-1049.82l402.127,1042.26m-395.248,-1049.83l402.135,1042.26m-395.251,-1049.83l402.138,1042.26m-395.258,-1049.83l402.129,1042.26" style="fill:none;fill-rule:nonzero;stroke:#f8c623;stroke-width:2.84px;"/></g></g></g><g><g><clipPath id="_clip6"><path d="M1454.46,129.292c95.61,0 173.24,78.211 173.24,174.545c0,96.334 -77.63,174.545 -173.24,174.545c-95.62,0 -173.24,-78.211 -173.24,-174.545c0,-96.334 77.62,-174.545 173.24,-174.545Zm0,43.636c71.71,0 129.93,58.658 129.93,130.909c0,72.25 -58.22,130.909 -129.93,130.909c-71.71,0 -129.93,-58.659 -129.93,-130.909c0,-72.251 58.22,-130.909 129.93,-130.909Z"/></clipPath><g clip-path="url(#_clip6)"><path d="M944.835,-52.351l402.125,1042.26m-395.246,-1049.83l402.136,1042.26m-395.254,-1049.83l402.134,1042.26m-395.252,-1049.83l402.122,1042.26m-395.242,-1049.83l402.132,1042.26m-395.251,-1049.83l402.121,1042.26m-395.239,-1049.82l402.129,1042.26m-395.246,-1049.82l402.126,1042.26m-395.244,-1049.83l402.134,1042.26m-395.25,-1049.83l402.12,1042.26m-395.24,-1049.83l402.13,1042.26m-395.25,-1049.83l402.14,1042.26m-395.26,-1049.83l402.13,1042.26m-395.25,-1049.83l402.13,1042.26m-395.25,-1049.83l402.13,1042.26m-395.24,-1049.82l402.12,1042.26m-395.25,-1049.83l402.14,1042.26m-395.25,-1049.83l402.13,1042.26m-395.25,-1049.83l402.13,1042.26m-395.25,-1049.82l402.13,1042.26m-395.25,-1049.83l402.14,1042.26m-395.25,-1049.83l402.12,1042.26m-395.24,-1049.82l402.13,1042.26m-395.25,-1049.83l402.13,1042.26m-395.25,-1049.83l402.13,1042.26m-395.25,-1049.82l402.13,1042.26m-395.25,-1049.83l402.14,1042.26m-395.26,-1049.83l402.13,1042.26m-395.25,-1049.82l402.14,1042.26m-395.25,-1049.83l402.13,1042.26m-395.25,-1049.82l402.12,1042.26m-395.24,-1049.83l402.13,1042.26m-395.25,-1049.83l402.14,1042.26m-395.26,-1049.83l402.13,1042.26m-395.24,-1049.83l402.12,1042.26m-395.25,-1049.83l402.14,1042.26m-395.25,-1049.83l402.12,1042.26m-395.24,-1049.83l402.13,1042.26m-395.25,-1049.83l402.14,1042.26m-395.26,-1049.83l402.13,1042.26m-395.25,-1049.83l402.13,1042.26m-395.24,-1049.83l402.13,1042.26m-395.25,-1049.83l402.12,1042.26m-395.24,-1049.83l402.13,1042.26m-395.25,-1049.83l402.14,1042.26m-395.26,-1049.83l402.12,1042.26m-395.24,-1049.83l402.13,1042.26m-395.25,-1049.83l402.14,1042.26m-395.26,-1049.83l402.13,1042.26m-395.24,-1049.82l402.13,1042.26m-395.25,-1049.83l402.13,1042.26m-395.25,-1049.83l402.12,1042.26m-395.24,-1049.82l402.13,1042.26m-395.25,-1049.83l402.14,1042.26m-395.26,-1049.82l402.13,1042.26m-395.24,-1049.83l402.12,1042.26m-395.24,-1049.83l402.13,1042.26m-395.25,-1049.82l402.12,1042.26m-395.24,-1049.83l402.13,1042.26m-395.25,-1049.83l402.14,1042.26m-395.26,-1049.83l402.13,1042.26m-395.24,-1049.83l402.12,1042.26m-395.24,-1049.83l402.13,1042.26m-395.25,-1049.82l402.14,1042.26m-395.26,-1049.83l402.13,1042.26m-395.25,-1049.83l402.14,1042.26m-395.26,-1049.83l402.13,1042.26m-395.25,-1049.83l402.13,1042.26m-395.24,-1049.82l402.13,1042.26m-395.25,-1049.83l402.12,1042.26m-395.24,-1049.83l402.13,1042.26m-395.25,-1049.82l402.13,1042.26m-395.25,-1049.83l402.14,1042.26m-395.26,-1049.83l402.13,1042.26m-395.25,-1049.83l402.14,1042.26m-395.25,-1049.83l402.14,1042.26m-395.26,-1049.83l402.13,1042.26m-395.25,-1049.82l402.13,1042.26m-395.25,-1049.83l402.14,1042.26m-395.26,-1049.83l402.13,1042.26m-395.25,-1049.83l402.14,1042.26m-395.25,-1049.83l402.13,1042.26m-395.25,-1049.83l402.13,1042.26m-395.25,-1049.83l402.13,1042.26m-395.25,-1049.83l402.12,1042.26m-395.24,-1049.82l402.13,1042.26m-395.25,-1049.83l402.14,1042.26m-395.25,-1049.83l402.13,1042.26m-395.26,-1049.83l402.13,1042.26" style="fill:none;fill-rule:nonzero;stroke:#f8c623;stroke-width:2.84px;"/></g></g></g><g><clipPath id="_clip7"><path d="M1132.25,11.232c32.002,-0 57.983,26.472 57.983,59.078c0,32.607 -25.981,59.079 -57.983,59.079c-32.002,-0 -57.984,-26.472 -57.984,-59.079c0,-32.606 25.982,-59.078 57.984,-59.078Zm0,29.539c16.001,-0 28.991,13.236 28.991,29.539c0,16.304 -12.99,29.539 -28.991,29.539c-16.001,-0 -28.992,-13.235 -28.992,-29.539c0,-16.303 12.991,-29.539 28.992,-29.539Z"/></clipPath><g clip-path="url(#_clip7)"><path d="M904.339,66.153l235.531,610.463m-231.501,-614.897l235.535,610.467m-231.505,-614.897l235.538,610.467m-231.507,-614.898l235.532,610.468m-231.502,-614.899l235.536,610.469m-231.506,-614.9l235.53,610.47m-231.499,-614.902l235.533,610.472m-231.501,-614.901l235.534,610.471m-231.503,-614.902l235.537,610.472m-231.507,-614.904l235.531,610.464m-231.501,-614.897l235.535,610.467m-231.504,-614.897l235.538,610.467m-231.508,-614.898l235.532,610.468m-231.501,-614.899l235.535,610.469m-231.505,-614.9l235.529,610.47m-231.498,-614.901l235.532,610.471m-231.503,-614.902l235.537,610.472m-231.504,-614.903l235.537,610.473m-231.508,-614.905l235.533,610.465m-231.502,-614.896l235.535,610.466m-231.503,-614.896l235.537,610.466m-231.506,-614.898l235.531,610.468m-231.502,-614.899l235.535,610.469m-231.504,-614.901l235.538,610.471m-231.507,-614.902l235.532,610.472m-231.502,-614.902l235.535,610.472m-231.503,-614.903l235.537,610.473m-231.507,-614.905l235.531,610.465m-231.502,-614.895l235.536,610.465m-231.504,-614.896l235.537,610.466m-231.508,-614.897l235.533,610.467m-231.502,-614.898l235.535,610.468m-231.503,-614.9l235.537,610.47m-231.506,-614.9l235.53,610.47m-231.499,-614.901l235.533,610.471m-231.504,-614.903l235.538,610.473m-231.507,-614.903l235.531,610.473m-231.5,-614.905l235.534,610.465m-231.503,-614.896l235.537,610.466m-231.507,-614.897l235.531,610.467m-231.5,-614.899l235.534,610.469m-231.504,-614.899l235.537,610.469m-231.506,-614.9l235.531,610.47m-231.501,-614.902l235.535,610.472m-231.505,-614.904l235.538,610.474m-231.506,-614.903l235.531,610.473m-231.5,-614.905l235.533,610.465m-231.503,-614.897l235.537,610.467m-231.507,-614.898l235.532,610.468m-231.501,-614.898l235.534,610.468m-231.503,-614.9l235.537,610.47m-231.507,-614.9l235.531,610.47m-231.499,-614.901l235.533,610.471m-231.504,-614.903l235.538,610.473m-231.507,-614.902l235.531,610.462m-231.501,-614.895l235.535,610.475m-231.505,-614.907l235.538,610.467m-231.506,-614.896l235.53,610.466m-231.499,-614.897l235.533,610.467m-231.502,-614.899l235.536,610.469m-231.507,-614.9l235.531,610.47m-231.498,-614.902l235.532,610.472m-231.503,-614.905l235.537,610.465m-231.505,-614.894l235.538,610.474m-231.508,-614.905l235.533,610.465m-231.503,-614.895l235.536,610.465m-231.505,-614.897l235.53,610.467m-231.499,-614.899l235.533,610.469m-231.503,-614.898l235.536,610.468m-231.506,-614.9l235.531,610.47m-231.5,-614.902l235.534,610.472m-231.503,-614.902l235.536,610.472m-231.504,-614.903l235.538,610.473m-231.509,-614.905l235.533,610.465m-231.503,-614.895l235.537,610.465m-231.504,-614.897l235.538,610.467m-231.509,-614.898l235.533,610.468m-231.502,-614.898l235.536,610.468m-231.505,-614.9l235.538,610.47m-231.508,-614.901l235.533,610.471m-231.503,-614.902l235.536,610.472m-231.505,-614.903l235.539,610.473m-231.509,-614.904l235.533,610.474m-231.502,-614.906l235.536,610.466m-231.505,-614.896l235.53,610.466m-231.499,-614.897l235.532,610.467m-231.503,-614.899l235.537,610.469m-231.505,-614.901l235.539,610.471m-231.509,-614.901l235.533,610.471" style="fill:none;fill-rule:nonzero;stroke:#f8c623;stroke-width:1.66px;"/></g></g><g><clipPath id="_clip8"><path d="M446.992,101.88c31.23,-0 56.584,25.728 56.584,57.418c0,31.691 -25.354,57.42 -56.584,57.42c-31.23,0 -56.584,-25.729 -56.584,-57.42c-0,-31.69 25.354,-57.418 56.584,-57.418Zm0,43.064c7.804,0 14.146,6.432 14.146,14.354c0,7.923 -6.342,14.355 -14.146,14.355c-7.811,0 -14.146,-6.432 -14.146,-14.355c-0,-7.922 6.335,-14.354 14.146,-14.354Z"/></clipPath><g clip-path="url(#_clip8)"><path d="M216.709,108.679l172.098,446.065m-169.161,-449.304l172.106,446.059m-169.154,-449.297l172.099,446.06m-169.154,-449.296l172.098,446.059m-169.154,-449.298l172.099,446.061m-169.154,-449.299l172.099,446.062m-169.154,-449.299l172.098,446.063m-169.154,-449.3l172.099,446.063m-169.154,-449.301l172.106,446.064m-169.161,-449.302l172.098,446.065m-169.154,-449.304l172.099,446.059m-169.154,-449.296l172.106,446.06m-169.161,-449.297l172.098,446.06m-169.154,-449.298l172.106,446.061m-169.161,-449.299l172.099,446.062m-169.154,-449.3l172.106,446.063m-169.162,-449.301l172.106,446.064m-169.154,-449.301l172.099,446.064m-169.161,-449.303l172.106,446.059m-169.162,-449.296l172.106,446.066m-169.154,-449.303l172.099,446.066m-169.154,-449.304l172.099,446.06m-169.154,-449.298l172.098,446.061m-169.154,-449.299l172.106,446.062m-169.161,-449.301l172.099,446.064m-169.154,-449.3l172.098,446.063m-169.154,-449.301l172.106,446.064m-169.161,-449.302l172.099,446.065m-169.154,-449.302l172.098,446.065m-169.154,-449.303l172.106,446.059m-169.161,-449.296l172.099,446.059m-169.154,-449.298l172.106,446.061m-169.162,-449.299l172.106,446.062m-169.161,-449.298l172.106,446.061m-169.154,-449.3l172.099,446.063m-169.162,-449.301l172.106,446.064m-169.154,-449.3l172.099,446.063m-169.154,-449.302l172.099,446.065m-169.154,-449.303l172.098,446.066m-169.154,-449.303l172.099,446.059m-169.154,-449.297l172.099,446.06m-169.154,-449.298l172.106,446.061m-169.162,-449.299l172.099,446.062m-169.154,-449.3l172.099,446.063m-169.154,-449.301l172.106,446.064m-169.162,-449.301l172.099,446.064m-169.154,-449.301l172.106,446.064m-169.161,-449.303l172.106,446.059m-169.162,-449.297l172.099,446.06m-169.154,-449.296l172.106,446.059m-169.161,-449.298l172.106,446.061m-169.154,-449.299l172.099,446.062m-169.155,-449.299l172.099,446.063m-169.154,-449.301l172.099,446.064m-169.154,-449.301l172.099,446.064m-169.155,-449.302l172.099,446.065m-169.154,-449.304l172.106,446.067m-169.161,-449.303l172.099,446.058m-169.155,-449.296l172.099,446.06m-169.154,-449.299l172.106,446.062m-169.161,-449.299l172.099,446.062m-169.155,-449.3l172.099,446.063m-169.154,-449.302l172.106,446.065m-169.161,-449.301l172.106,446.064m-169.162,-449.302l172.107,446.065m-169.162,-449.303l172.106,446.066m-169.154,-449.304l172.099,446.06m-169.154,-449.299l172.099,446.062m-169.155,-449.298l172.099,446.061m-169.154,-449.299l172.099,446.062m-169.154,-449.301l172.099,446.064m-169.155,-449.301l172.099,446.064m-169.154,-449.301l172.106,446.064m-169.161,-449.302l172.099,446.065m-169.155,-449.303l172.107,446.066m-169.162,-449.303l172.106,446.059m-169.161,-449.297l172.099,446.06m-169.155,-449.297l172.107,446.06m-169.162,-449.298l172.106,446.061m-169.161,-449.3l172.106,446.063m-169.162,-449.3l172.107,446.062m-169.162,-449.3l172.106,446.063m-169.161,-449.3l172.106,446.062m-169.154,-449.3l172.099,446.062m-169.162,-449.3l172.099,446.062m-169.147,-449.299l172.099,446.062m-169.162,-449.3l172.107,446.062m-169.155,-449.301l172.107,446.063m-169.162,-449.3l172.099,446.062" style="fill:none;fill-rule:nonzero;stroke:#f8c623;stroke-width:1.21px;"/></g></g></g></g></g><clipPath id="_clip9"><path id="cog_large_hollow.svg" d="M140.84,655.844c-8.067,-0.766 -16.191,-0.766 -24.258,0l-3.995,19.024c-7.732,1.157 -15.311,3.143 -22.598,5.922l-13.185,-14.521c-7.378,3.281 -14.414,7.254 -21.008,11.863l6.265,18.429c-6.105,4.783 -11.652,10.209 -16.543,16.18l-18.842,-6.128c-4.712,6.45 -8.774,13.331 -12.129,20.547l14.847,12.896c-2.842,7.128 -4.872,14.54 -6.055,22.103l-19.45,3.907c-0.784,7.89 -0.784,15.836 -0,23.726l19.45,3.908c1.183,7.562 3.213,14.974 6.055,22.102l-14.847,12.896c3.355,7.217 7.417,14.098 12.129,20.548l18.842,-6.128c4.891,5.97 10.438,11.396 16.543,16.18l-6.265,18.429c6.594,4.609 13.63,8.582 21.008,11.863l13.185,-14.522c7.287,2.779 14.866,4.766 22.598,5.923l3.995,19.023c8.067,0.767 16.191,0.767 24.258,0l3.995,-19.023c7.732,-1.157 15.31,-3.144 22.598,-5.923l13.185,14.522c7.378,-3.281 14.414,-7.254 21.008,-11.863l-6.265,-18.429c6.105,-4.784 11.652,-10.21 16.543,-16.18l18.842,6.128c4.712,-6.45 8.774,-13.331 12.129,-20.548l-14.847,-12.896c2.841,-7.128 4.872,-14.54 6.055,-22.102l19.45,-3.908c0.784,-7.89 0.784,-15.836 0,-23.726l-19.45,-3.907c-1.183,-7.563 -3.214,-14.975 -6.055,-22.103l14.847,-12.896c-3.355,-7.216 -7.417,-14.097 -12.129,-20.547l-18.842,6.128c-4.891,-5.971 -10.438,-11.397 -16.543,-16.18l6.265,-18.429c-6.594,-4.609 -13.63,-8.582 -21.008,-11.863l-13.185,14.521c-7.288,-2.779 -14.866,-4.765 -22.598,-5.922l-3.995,-19.024Zm-12.129,97.553c13.843,0 25.082,10.993 25.082,24.532c-0,13.54 -11.239,24.532 -25.082,24.532c-13.843,0 -25.082,-10.992 -25.082,-24.532c-0,-13.539 11.239,-24.532 25.082,-24.532Z"/></clipPath><g clip-path="url(#_clip9)"><clipPath id="_clip10"><rect x="-175.006" y="590.272" width="466.622" height="466.622"/></clipPath><g clip-path="url(#_clip10)"><g><path d="M378.908,812.613l-477.966,-622.995l477.966,622.995Zm-1.89,6.985l-477.965,-622.995l477.965,622.995Zm-1.894,6.981l-477.965,-622.995l477.965,622.995Zm-1.893,6.981l-477.966,-622.994l477.966,622.994Zm-1.893,6.985l-477.965,-622.995l477.965,622.995Zm-1.891,6.981l-477.966,-622.995l477.966,622.995Zm-1.894,6.983l-477.966,-622.995l477.966,622.995Zm-1.894,6.981l-477.965,-622.996l477.965,622.996Zm-1.894,6.983l-477.965,-622.995l477.965,622.995Zm-1.893,6.983l-477.965,-622.996l477.965,622.996Zm-1.891,6.982l-477.965,-622.994l477.965,622.994Zm-1.894,6.983l-477.965,-622.995l477.965,622.995Zm-1.893,6.981l-477.966,-622.995l477.966,622.995Zm-1.893,6.983l-477.965,-622.995l477.965,622.995Zm-1.893,6.981l-477.965,-622.995l477.965,622.995Zm-1.893,6.984l-477.966,-622.995l477.966,622.995Zm-1.892,6.981l-477.966,-622.995l477.966,622.995Zm-1.895,6.983l-477.965,-622.995l477.965,622.995Zm-1.892,6.983l-477.966,-622.995l477.966,622.995Zm-1.894,6.981l-477.965,-622.994l477.965,622.994Zm-1.893,6.983l-477.965,-622.996l477.965,622.996Zm-1.893,6.983l-477.966,-622.995l477.966,622.995Zm-1.891,6.982l-477.966,-622.995l477.966,622.995Zm-1.895,6.982l-477.965,-622.995l477.965,622.995Zm-1.892,6.985l-477.966,-622.996l477.966,622.996Zm-1.893,6.979l-477.966,-622.995l477.966,622.995Zm-1.895,6.983l-477.965,-622.994l477.965,622.994Zm-1.892,6.982l-477.965,-622.995l477.965,622.995Zm-1.892,6.982l-477.966,-622.994l477.966,622.994Zm-1.894,6.984l-477.965,-622.995l477.965,622.995Zm-1.893,6.976l-477.965,-622.991l477.965,622.991Zm-1.892,6.99l-477.966,-622.998l477.966,622.998Zm-1.895,6.981l-477.965,-622.995l477.965,622.995Zm-1.893,6.981l-477.965,-622.995l477.965,622.995Zm-1.893,6.98l-477.966,-622.992l477.966,622.992Zm-1.891,6.99l-477.966,-622.999l477.966,622.999Zm-1.894,6.981l-477.965,-622.999l477.965,622.999Zm-1.893,6.981l-477.966,-622.997l477.966,622.997Zm-1.894,6.98l-477.966,-622.994l477.966,622.994Zm-1.892,6.981l-477.965,-622.994l477.965,622.994Zm-1.894,6.981l-477.966,-622.992l477.966,622.992Zm-1.892,6.99l-477.966,-622.999l477.966,622.999Zm-1.894,6.98l-477.965,-622.997l477.965,622.997Zm-1.893,6.981l-477.965,-622.995l477.965,622.995Zm-1.891,6.979l-477.966,-622.993l477.966,622.993Zm-1.895,6.98l-477.965,-622.99l477.965,622.99Zm-1.893,6.981l-477.965,-622.99l477.965,622.99Zm-1.892,6.99l-477.966,-622.996l477.966,622.996Zm-1.894,6.981l-477.964,-622.995l477.964,622.995Zm-1.893,6.98l-477.965,-622.993l477.965,622.993Zm-1.893,6.981l-477.966,-622.992l477.966,622.992Zm-1.893,6.98l-477.965,-622.988l477.965,622.988Zm-1.894,6.99l-477.965,-622.997l477.965,622.997Zm-1.892,6.98l-477.965,-622.995l477.965,622.995Zm-1.893,6.981l-477.966,-622.994l477.966,622.994Zm-1.894,6.982l-477.965,-622.993l477.965,622.993Zm-1.891,6.98l-477.966,-622.99l477.966,622.99Zm-1.894,6.981l-477.966,-622.991l477.966,622.991Zm-1.893,6.99l-477.965,-622.997l477.965,622.997Zm-1.893,6.98l-477.966,-622.994l477.966,622.994Zm-1.893,6.98l-477.966,-622.993l477.966,622.993Zm-1.894,6.981l-477.965,-622.99l477.965,622.99Zm-1.892,6.991l-477.966,-622.997l477.966,622.997Zm-1.894,6.981l-477.966,-622.998l477.966,622.998Zm-1.893,6.98l-477.965,-622.996l477.965,622.996Zm-1.893,6.98l-477.965,-622.994l477.965,622.994Zm-1.893,6.981l-477.966,-622.992l477.966,622.992Zm-1.893,6.98l-477.965,-622.99l477.965,622.99Zm-1.893,6.981l-477.965,-622.99l477.965,622.99Zm-1.893,6.991l-477.966,-622.997l477.966,622.997Zm-1.892,6.981l-477.965,-622.995l477.965,622.995Zm-1.894,6.98l-477.965,-622.994l477.965,622.994Zm-1.894,6.98l-477.965,-622.99l477.965,622.99Zm-1.893,6.981l-477.965,-622.99l477.965,622.99Zm-1.892,6.98l-477.965,-622.987l477.965,622.987Zm-1.894,6.99l-477.966,-622.994l477.966,622.994Zm-1.892,6.982l-477.966,-622.994l477.966,622.994Zm-1.894,6.981l-477.964,-622.994l477.964,622.994Zm-1.893,6.98l-477.966,-622.99l477.966,622.99Zm-1.892,6.98l-477.966,-622.988l477.966,622.988Zm-1.893,6.99l-477.965,-622.996l477.965,622.996Zm-1.894,6.981l-477.966,-622.995l477.966,622.995Zm-1.892,6.98l-477.966,-622.994l477.966,622.994Zm-1.893,6.982l-477.965,-622.992l477.965,622.992Zm-1.894,6.98l-477.966,-622.99l477.966,622.99Zm-1.893,6.981l-477.966,-622.99l477.966,622.99Zm-1.892,6.989l-477.965,-622.995l477.965,622.995Zm-1.894,6.981l-477.965,-622.993l477.965,622.993Zm-1.892,6.981l-477.966,-622.993l477.966,622.993Z" style="fill:#009cd1;fill-rule:nonzero;"/><path d="M378.908,812.613l-477.966,-622.995m476.076,629.98l-477.965,-622.995m476.071,629.976l-477.965,-622.995m476.072,629.976l-477.966,-622.994m476.073,629.979l-477.965,-622.995m476.074,629.976l-477.966,-622.995m476.072,629.978l-477.966,-622.995m476.072,629.976l-477.965,-622.996m476.071,629.979l-477.965,-622.995m476.072,629.978l-477.965,-622.996m476.074,629.978l-477.965,-622.994m476.071,629.977l-477.965,-622.995m476.072,629.976l-477.966,-622.995m476.073,629.978l-477.965,-622.995m476.072,629.976l-477.965,-622.995m476.072,629.979l-477.966,-622.995m476.074,629.976l-477.966,-622.995m476.071,629.978l-477.965,-622.995m476.073,629.978l-477.966,-622.995m476.072,629.976l-477.965,-622.994m476.072,629.977l-477.965,-622.996m476.072,629.979l-477.966,-622.995m476.075,629.977l-477.966,-622.995m476.071,629.977l-477.965,-622.995m476.073,629.98l-477.966,-622.996m476.073,629.975l-477.966,-622.995m476.071,629.978l-477.965,-622.994m476.073,629.976l-477.965,-622.995m476.073,629.977l-477.966,-622.994m476.072,629.978l-477.965,-622.995m476.072,629.971l-477.965,-622.991m476.073,629.981l-477.966,-622.998m476.071,629.979l-477.965,-622.995m476.072,629.976l-477.965,-622.995m476.072,629.975l-477.966,-622.992m476.075,629.982l-477.966,-622.999m476.072,629.98l-477.965,-622.999m476.072,629.98l-477.966,-622.997m476.072,629.977l-477.966,-622.994m476.074,629.975l-477.965,-622.994m476.071,629.975l-477.966,-622.992m476.074,629.982l-477.966,-622.999m476.072,629.979l-477.965,-622.997m476.072,629.978l-477.965,-622.995m476.074,629.974l-477.966,-622.993m476.071,629.973l-477.965,-622.99m476.072,629.971l-477.965,-622.99m476.073,629.98l-477.966,-622.996m476.072,629.977l-477.964,-622.995m476.071,629.975l-477.965,-622.993m476.072,629.974l-477.966,-622.992m476.073,629.972l-477.965,-622.988m476.071,629.978l-477.965,-622.997m476.073,629.977l-477.965,-622.995m476.072,629.976l-477.966,-622.994m476.072,629.976l-477.965,-622.993m476.074,629.973l-477.966,-622.99m476.072,629.971l-477.966,-622.991m476.073,629.981l-477.965,-622.997m476.072,629.977l-477.966,-622.994m476.073,629.974l-477.966,-622.993m476.072,629.974l-477.965,-622.99m476.073,629.981l-477.966,-622.997m476.072,629.978l-477.966,-622.998m476.073,629.978l-477.965,-622.996m476.072,629.976l-477.965,-622.994m476.072,629.975l-477.966,-622.992m476.073,629.972l-477.965,-622.99m476.072,629.971l-477.965,-622.99m476.072,629.981l-477.966,-622.997m476.074,629.978l-477.965,-622.995m476.071,629.975l-477.965,-622.994m476.071,629.974l-477.965,-622.99m476.072,629.971l-477.965,-622.99m476.073,629.97l-477.965,-622.987m476.071,629.977l-477.966,-622.994m476.074,629.976l-477.966,-622.994m476.072,629.975l-477.964,-622.994m476.071,629.974l-477.966,-622.99m476.074,629.97l-477.966,-622.988m476.073,629.978l-477.965,-622.996m476.071,629.977l-477.966,-622.995m476.074,629.975l-477.966,-622.994m476.073,629.976l-477.965,-622.992m476.071,629.972l-477.966,-622.99m476.073,629.971l-477.966,-622.99m476.074,629.979l-477.965,-622.995m476.071,629.976l-477.965,-622.993m476.073,629.974l-477.966,-622.993" style="fill:none;fill-rule:nonzero;stroke:#009cd1;stroke-width:1.87px;"/></g></g></g><clipPath id="_clip11"><path id="cog_medium_filled.svg" d="M1318.04,624.213c-8.826,-0.857 -17.714,-0.857 -26.54,0c1.248,12.845 -4.404,20.765 -16.956,23.762c-12.369,3.681 -21.224,-0.353 -26.565,-12.1c-8.073,3.67 -15.77,8.114 -22.985,13.27c7.503,10.499 6.569,20.185 -2.803,29.056c-8.871,9.372 -18.557,10.306 -29.056,2.803c-5.156,7.215 -9.6,14.913 -13.271,22.985c11.748,5.341 15.781,14.196 12.101,26.565c-2.997,12.552 -10.918,18.204 -23.762,16.956c-0.858,8.826 -0.858,17.714 -0,26.54c12.844,-1.248 20.765,4.404 23.762,16.956c3.68,12.369 -0.353,21.224 -12.101,26.565c3.671,8.073 8.115,15.77 13.271,22.985c10.499,-7.503 20.185,-6.569 29.056,2.803c9.372,8.872 10.306,18.557 2.803,29.057c7.215,5.155 14.912,9.599 22.985,13.27c5.341,-11.748 14.196,-15.781 26.565,-12.101c12.552,2.997 18.204,10.918 16.956,23.762c8.826,0.858 17.714,0.858 26.54,0c-1.248,-12.844 4.404,-20.765 16.956,-23.762c12.369,-3.68 21.224,0.353 26.565,12.101c8.072,-3.671 15.77,-8.115 22.985,-13.27c-7.503,-10.5 -6.569,-20.185 2.803,-29.057c8.871,-9.372 18.557,-10.306 29.056,-2.803c5.156,-7.215 9.6,-14.912 13.27,-22.985c-11.747,-5.341 -15.781,-14.196 -12.1,-26.565c2.997,-12.552 10.918,-18.204 23.762,-16.956c0.857,-8.826 0.857,-17.714 -0,-26.54c-12.844,1.248 -20.765,-4.404 -23.762,-16.956c-3.681,-12.369 0.353,-21.224 12.1,-26.565c-3.67,-8.072 -8.114,-15.77 -13.27,-22.985c-10.499,7.503 -20.185,6.569 -29.056,-2.803c-9.372,-8.871 -10.306,-18.557 -2.803,-29.056c-7.215,-5.156 -14.913,-9.6 -22.985,-13.27c-5.341,11.747 -14.196,15.781 -26.565,12.1c-12.552,-2.997 -18.204,-10.917 -16.956,-23.762Zm-13.27,63.886c40.114,-0 72.681,32.567 72.681,72.681c0,40.114 -32.567,72.682 -72.681,72.682c-40.114,-0 -72.682,-32.568 -72.682,-72.682c0,-40.114 32.568,-72.681 72.682,-72.681Z"/></clipPath><g clip-path="url(#_clip11)"><clipPath id="_clip12"><rect x="945.319" y="302.822" width="644.858" height="671.727"/></clipPath><g clip-path="url(#_clip12)"><g><path d="M2109.45,856.108l-917.411,-1195.78l917.411,1195.78Zm-3.628,13.408l-917.409,-1195.78l917.409,1195.78Zm-3.634,13.398l-917.411,-1195.78l917.411,1195.78Zm-3.635,13.401l-917.411,-1195.78l917.411,1195.78Zm-3.632,13.406l-917.409,-1195.78l917.409,1195.78Zm-3.631,13.4l-917.411,-1195.78l917.411,1195.78Zm-3.635,13.403l-917.411,-1195.78l917.411,1195.78Zm-3.636,13.398l-917.409,-1195.78l917.409,1195.78Zm-3.635,13.404l-917.409,-1195.78l917.409,1195.78Zm-3.632,13.403l-917.411,-1195.78l917.411,1195.78Zm-3.631,13.402l-917.409,-1195.78l917.409,1195.78Zm-3.635,13.402l-917.409,-1195.78l917.409,1195.78Zm-3.634,13.401l-917.411,-1195.78l917.411,1195.78Zm-3.633,13.402l-917.409,-1195.78l917.409,1195.78Zm-3.633,13.401l-917.409,-1195.78l917.409,1195.78Zm-3.634,13.404l-917.411,-1195.78l917.411,1195.78Zm-3.631,13.4l-917.411,-1195.78l917.411,1195.78Zm-3.638,13.402l-917.409,-1195.78l917.409,1195.78Zm-3.631,13.405l-917.411,-1195.78l917.411,1195.78Zm-3.634,13.398l-917.411,-1195.78l917.411,1195.78Zm-3.635,13.403l-917.408,-1195.78l917.408,1195.78Zm-3.633,13.404l-917.41,-1195.78l917.41,1195.78Zm-3.631,13.4l-917.41,-1195.78l917.41,1195.78Zm-3.636,13.402l-917.408,-1195.78l917.408,1195.78Zm-3.632,13.406l-917.411,-1195.78l917.411,1195.78Zm-3.633,13.397l-917.41,-1195.78l917.41,1195.78Zm-3.636,13.403l-917.409,-1195.78l917.409,1195.78Zm-3.633,13.402l-917.409,-1195.78l917.409,1195.78Zm-3.631,13.4l-917.41,-1195.78l917.41,1195.78Zm-3.636,13.406l-917.409,-1195.78l917.409,1195.78Zm-3.633,13.39l-917.408,-1195.77l917.408,1195.77Zm-3.631,13.417l-917.41,-1195.79l917.41,1195.79Zm-3.638,13.398l-917.408,-1195.78l917.408,1195.78Zm-3.633,13.399l-917.408,-1195.78l917.408,1195.78Zm-3.634,13.399l-917.41,-1195.78l917.41,1195.78Zm-3.629,13.416l-917.411,-1195.79l917.411,1195.79Zm-3.637,13.399l-917.408,-1195.79l917.408,1195.79Zm-3.632,13.399l-917.41,-1195.78l917.41,1195.78Zm-3.635,13.399l-917.41,-1195.78l917.41,1195.78Zm-3.633,13.398l-917.408,-1195.78l917.408,1195.78Zm-3.634,13.399l-917.41,-1195.77l917.41,1195.77Zm-3.633,13.417l-917.41,-1195.79l917.41,1195.79Zm-3.634,13.398l-917.409,-1195.78l917.409,1195.78Zm-3.633,13.399l-917.41,-1195.78l917.41,1195.78Zm-3.631,13.395l-917.41,-1195.78l917.41,1195.78Zm-3.636,13.399l-917.408,-1195.77l917.408,1195.77Zm-3.635,13.399l-917.408,-1195.77l917.408,1195.77Zm-3.631,13.416l-917.41,-1195.78l917.41,1195.78Zm-3.634,13.399l-917.408,-1195.78l917.408,1195.78Zm-3.635,13.399l-917.408,-1195.78l917.408,1195.78Zm-3.632,13.398l-917.41,-1195.77l917.41,1195.77Zm-3.635,13.399l-917.408,-1195.77l917.408,1195.77Zm-3.634,13.417l-917.409,-1195.78l917.409,1195.78Zm-3.631,13.398l-917.41,-1195.78l917.41,1195.78Zm-3.635,13.399l-917.41,-1195.78l917.41,1195.78Zm-3.634,13.399l-917.408,-1195.78l917.408,1195.78Zm-3.631,13.399l-917.41,-1195.77l917.41,1195.77Zm-3.634,13.398l-917.411,-1195.77l917.411,1195.77Zm-3.635,13.417l-917.408,-1195.78l917.408,1195.78Zm-3.633,13.399l-917.41,-1195.78l917.41,1195.78Zm-3.632,13.398l-917.411,-1195.78l917.411,1195.78Zm-3.637,13.399l-917.408,-1195.77l917.408,1195.77Zm-3.631,13.417l-917.41,-1195.78l917.41,1195.78Zm-3.636,13.398l-917.41,-1195.78l917.41,1195.78Zm-3.633,13.399l-917.408,-1195.78l917.408,1195.78Zm-3.634,13.399l-917.408,-1195.78l917.408,1195.78Zm-3.633,13.399l-917.41,-1195.78l917.41,1195.78Zm-3.632,13.398l-917.409,-1195.77l917.409,1195.77Zm-3.635,13.399l-917.408,-1195.77l917.408,1195.77Zm-3.633,13.417l-917.41,-1195.78l917.41,1195.78Zm-3.632,13.398l-917.409,-1195.78l917.409,1195.78Zm-3.635,13.399l-917.408,-1195.78l917.408,1195.78Zm-3.634,13.399l-917.41,-1195.77l917.41,1195.77Zm-3.635,13.399l-917.408,-1195.77l917.408,1195.77Zm-3.631,13.398l-917.408,-1195.77l917.408,1195.77Zm-3.636,13.417l-917.41,-1195.78l917.41,1195.78Zm-3.631,13.399l-917.41,-1195.78l917.41,1195.78Zm-3.634,13.398l-917.409,-1195.78l917.409,1195.78Zm-3.635,13.399l-917.41,-1195.77l917.41,1195.77Zm-3.631,13.399l-917.41,-1195.77l917.41,1195.77Zm-3.634,13.416l-917.409,-1195.78l917.409,1195.78Zm-3.635,13.399l-917.41,-1195.78l917.41,1195.78Zm-3.632,13.399l-917.411,-1195.78l917.411,1195.78Zm-3.633,13.399l-917.409,-1195.77l917.409,1195.77Zm-3.635,13.398l-917.41,-1195.77l917.41,1195.77Zm-3.634,13.399l-917.41,-1195.77l917.41,1195.77Zm-3.631,13.417l-917.408,-1195.78l917.408,1195.78Zm-3.636,13.398l-917.409,-1195.78l917.409,1195.78Zm-3.631,13.399l-917.41,-1195.78l917.41,1195.78Z" style="fill:#f8c623;fill-rule:nonzero;"/><path d="M2109.45,856.108l-917.411,-1195.78m913.783,1209.19l-917.409,-1195.78m913.775,1209.18l-917.411,-1195.78m913.776,1209.18l-917.411,-1195.78m913.779,1209.18l-917.409,-1195.78m913.778,1209.18l-917.411,-1195.78m913.776,1209.18l-917.411,-1195.78m913.775,1209.18l-917.409,-1195.78m913.774,1209.18l-917.409,-1195.78m913.777,1209.18l-917.411,-1195.78m913.78,1209.18l-917.409,-1195.78m913.774,1209.18l-917.409,-1195.78m913.775,1209.18l-917.411,-1195.78m913.778,1209.18l-917.409,-1195.78m913.776,1209.18l-917.409,-1195.78m913.775,1209.18l-917.411,-1195.78m913.78,1209.18l-917.411,-1195.78m913.773,1209.18l-917.409,-1195.78m913.778,1209.18l-917.411,-1195.78m913.777,1209.18l-917.411,-1195.78m913.776,1209.18l-917.408,-1195.78m913.775,1209.18l-917.41,-1195.78m913.779,1209.18l-917.41,-1195.78m913.774,1209.18l-917.408,-1195.78m913.776,1209.19l-917.411,-1195.78m913.778,1209.18l-917.41,-1195.78m913.774,1209.18l-917.409,-1195.78m913.776,1209.18l-917.409,-1195.78m913.778,1209.18l-917.41,-1195.78m913.774,1209.18l-917.409,-1195.78m913.776,1209.17l-917.408,-1195.77m913.777,1209.19l-917.41,-1195.79m913.772,1209.18l-917.408,-1195.78m913.775,1209.18l-917.408,-1195.78m913.774,1209.18l-917.41,-1195.78m913.781,1209.19l-917.411,-1195.79m913.774,1209.19l-917.408,-1195.79m913.776,1209.19l-917.41,-1195.78m913.775,1209.18l-917.41,-1195.78m913.777,1209.18l-917.408,-1195.78m913.774,1209.18l-917.41,-1195.77m913.777,1209.19l-917.41,-1195.79m913.776,1209.19l-917.409,-1195.78m913.776,1209.18l-917.41,-1195.78m913.779,1209.17l-917.41,-1195.78m913.774,1209.17l-917.408,-1195.77m913.773,1209.17l-917.408,-1195.77m913.777,1209.19l-917.41,-1195.78m913.776,1209.18l-917.408,-1195.78m913.773,1209.18l-917.408,-1195.78m913.776,1209.17l-917.41,-1195.77m913.775,1209.17l-917.408,-1195.77m913.774,1209.18l-917.409,-1195.78m913.778,1209.18l-917.41,-1195.78m913.775,1209.18l-917.41,-1195.78m913.776,1209.18l-917.408,-1195.78m913.777,1209.17l-917.41,-1195.77m913.776,1209.17l-917.411,-1195.77m913.776,1209.19l-917.408,-1195.78m913.775,1209.18l-917.41,-1195.78m913.778,1209.18l-917.411,-1195.78m913.774,1209.18l-917.408,-1195.77m913.777,1209.19l-917.41,-1195.78m913.774,1209.18l-917.41,-1195.78m913.777,1209.18l-917.408,-1195.78m913.774,1209.18l-917.408,-1195.78m913.775,1209.18l-917.41,-1195.78m913.778,1209.17l-917.409,-1195.77m913.774,1209.17l-917.408,-1195.77m913.775,1209.19l-917.41,-1195.78m913.778,1209.18l-917.409,-1195.78m913.774,1209.18l-917.408,-1195.78m913.774,1209.18l-917.41,-1195.77m913.775,1209.17l-917.408,-1195.77m913.777,1209.17l-917.408,-1195.77m913.772,1209.18l-917.41,-1195.78m913.779,1209.18l-917.41,-1195.78m913.776,1209.18l-917.409,-1195.78m913.774,1209.17l-917.41,-1195.77m913.779,1209.17l-917.41,-1195.77m913.776,1209.18l-917.409,-1195.78m913.774,1209.18l-917.41,-1195.78m913.778,1209.18l-917.411,-1195.78m913.778,1209.18l-917.409,-1195.77m913.774,1209.17l-917.41,-1195.77m913.776,1209.17l-917.41,-1195.77m913.779,1209.19l-917.408,-1195.78m913.772,1209.18l-917.409,-1195.78m913.778,1209.18l-917.41,-1195.78" style="fill:none;fill-rule:nonzero;stroke:#f8c623;stroke-width:3.58px;"/></g></g></g><clipPath id="_clip13"><path id="cog_small_filled.svg" d="M675.074,749.185c-3.881,-0.346 -7.79,-0.346 -11.671,-0l-1.923,8.561c-3.72,0.521 -7.366,1.415 -10.872,2.665l-6.344,-6.535c-3.55,1.477 -6.935,3.265 -10.107,5.339l3.014,8.294c-2.937,2.153 -5.606,4.595 -7.959,7.282l-9.065,-2.758c-2.268,2.903 -4.222,6 -5.836,9.247l7.143,5.804c-1.367,3.208 -2.344,6.544 -2.913,9.947l-9.358,1.759c-0.377,3.551 -0.377,7.127 -0,10.678l9.358,1.758c0.569,3.404 1.546,6.74 2.913,9.947l-7.143,5.804c1.614,3.248 3.568,6.345 5.836,9.248l9.065,-2.758c2.353,2.687 5.022,5.129 7.959,7.282l-3.014,8.293c3.172,2.075 6.557,3.863 10.107,5.339l6.344,-6.535c3.506,1.251 7.152,2.145 10.872,2.666l1.923,8.561c3.881,0.345 7.79,0.345 11.671,0l1.922,-8.561c3.72,-0.521 7.366,-1.415 10.872,-2.666l6.344,6.535c3.55,-1.476 6.935,-3.264 10.108,-5.339l-3.015,-8.293c2.937,-2.153 5.607,-4.595 7.96,-7.282l9.065,2.758c2.267,-2.903 4.222,-6 5.836,-9.248l-7.144,-5.804c1.367,-3.207 2.344,-6.543 2.914,-9.947l9.358,-1.758c0.377,-3.551 0.377,-7.127 -0,-10.678l-9.358,-1.759c-0.57,-3.403 -1.547,-6.739 -2.914,-9.947l7.144,-5.804c-1.614,-3.247 -3.569,-6.344 -5.836,-9.247l-9.065,2.758c-2.353,-2.687 -5.023,-5.129 -7.96,-7.282l3.015,-8.294c-3.173,-2.074 -6.558,-3.862 -10.108,-5.339l-6.344,6.535c-3.506,-1.25 -7.152,-2.144 -10.872,-2.665l-1.922,-8.561Zm-5.836,27.163c16.759,-0 30.365,12.448 30.365,27.781c0,15.333 -13.606,27.781 -30.365,27.781c-16.759,-0 -30.365,-12.448 -30.365,-27.781c0,-15.333 13.606,-27.781 30.365,-27.781Z"/></clipPath><g clip-path="url(#_clip13)"><clipPath id="_clip14"><rect x="563.836" y="704.641" width="175" height="175"/></clipPath><g clip-path="url(#_clip14)"><g><path d="M362.874,1034.76l385.268,747.994m-381.943,-754.999l385.273,747.999m-381.946,-755l385.276,748m-381.949,-755.001l385.269,748.001m-381.943,-755.003l385.273,747.993m-381.947,-754.995l385.267,747.995m-381.94,-754.997l385.27,747.997m-381.942,-754.997l385.272,747.997m-381.945,-754.999l385.275,747.999m-381.949,-755.002l385.269,747.992m-381.943,-754.995l385.273,747.995m-381.946,-754.996l385.276,747.996m-381.95,-754.997l385.27,748.001m-381.943,-755.003l385.273,748.003m-381.947,-755.005l385.267,748.005m-381.939,-755.007l385.269,747.997m-381.944,-754.998l385.274,747.998m-381.945,-755l385.275,748m-381.95,-755.003l385.27,748.003m-381.943,-755.004l385.273,748.004m-381.945,-755.005l385.275,748.005m-381.948,-755.008l385.268,747.998m-381.943,-754.999l385.273,747.999m-381.946,-755.002l385.276,748.002m-381.949,-755.005l385.269,748.005m-381.943,-755.004l385.273,748.004m-381.945,-755.007l385.275,747.997m-381.949,-754.999l385.269,747.999m-381.943,-754.999l385.273,747.999m-381.945,-755.002l385.275,748.002m-381.95,-755.002l385.27,748.002m-381.943,-755.005l385.273,748.005m-381.945,-755.008l385.275,747.998m-381.948,-754.998l385.268,747.998m-381.941,-755l385.271,748m-381.946,-755.003l385.276,748.003m-381.948,-755.003l385.268,748.003m-381.942,-755.006l385.272,747.996m-381.945,-754.998l385.275,747.998m-381.948,-754.999l385.268,747.999m-381.941,-755.002l385.271,748.002m-381.945,-755.003l385.275,748.003m-381.948,-755.005l385.268,747.995m-381.942,-754.998l385.272,747.998m-381.946,-755l385.276,748m-381.948,-755l385.268,748m-381.941,-755.002l385.271,748.002m-381.945,-755.005l385.275,747.995m-381.949,-754.997l385.269,747.997m-381.942,-754.997l385.272,747.997m-381.945,-755l385.275,748m-381.948,-755.001l385.268,748.001m-381.94,-755.003l385.27,748.003m-381.945,-755.005l385.275,747.999m-381.948,-754.999l385.268,747.999m-381.942,-755.002l385.272,748m-381.946,-755.003l385.276,748m-381.948,-754.999l385.268,748m-381.941,-755.003l385.271,748m-381.944,-755.003l385.274,748m-381.949,-755.001l385.269,748m-381.94,-755.003l385.27,748m-381.945,-755.004l385.275,748m-381.947,-754.999l385.277,748m-381.95,-755.002l385.27,748m-381.944,-755.001l385.274,748m-381.947,-755.003l385.267,748m-381.941,-755.003l385.271,748m-381.944,-754.999l385.274,748m-381.948,-755.003l385.268,748m-381.941,-755.003l385.271,748m-381.944,-755l385.274,748m-381.946,-755.002l385.276,748m-381.951,-755.002l385.271,748m-381.945,-755.001l385.275,747.999m-381.946,-755.002l385.276,747.999m-381.95,-755l385.27,747.999m-381.943,-755l385.273,747.999m-381.946,-755.002l385.276,748m-381.95,-755.002l385.27,748m-381.944,-755.001l385.274,748m-381.947,-755.002l385.277,748m-381.951,-755.001l385.271,748m-381.944,-755.003l385.274,748m-381.947,-755.001l385.267,748m-381.94,-755.001l385.27,748m-381.945,-755.003l385.275,748m-381.947,-755.003l385.277,748m-381.951,-755l385.271,748" style="fill:none;fill-rule:nonzero;stroke:#c0e2f5;stroke-width:2px;"/></g></g></g></g></svg>