<?xml version="1.0" encoding="UTF-8" standalone="no"?><!DOCTYPE svg PUBLIC "-//W3C//DTD SVG 1.1//EN" "http://www.w3.org/Graphics/SVG/1.1/DTD/svg11.dtd"><svg width="100%" height="100%" viewBox="0 0 1440 900" version="1.1" xmlns="http://www.w3.org/2000/svg" xmlns:xlink="http://www.w3.org/1999/xlink" xml:space="preserve" xmlns:serif="http://www.serif.com/" style="fill-rule:evenodd;clip-rule:evenodd;"><g><g><g><g><clipPath id="_clip1"><rect x="0" y="0" width="1440" height="900"/></clipPath><g clip-path="url(#_clip1)"><rect x="0" y="0" width="1440" height="900" style="fill:white;"/><g transform="matrix(0.745519,0,0,0.745519,-411.598,447.545)"><g><g><g><clipPath id="_clip2"><path d="M733.038,429.568L638.314,453.205L775.185,341.505L733.038,429.568Z"/></clipPath><g clip-path="url(#_clip2)"><g transform="matrix(0.794868,-0.606782,0.606782,0.794868,-207.19,387.734)"><path d="M873.08,387.102L62.362,-167.926M873.134,395.984L62.417,-159.044M873.181,404.862L62.463,-150.165M873.229,413.741L62.511,-141.285M873.279,422.624L62.562,-132.405M873.329,431.502L62.611,-123.526M873.377,440.382L62.659,-114.645M873.423,449.261L62.707,-105.767M873.472,458.142L62.755,-96.886M873.521,467.022L62.803,-88.006M873.572,475.901L62.855,-79.126M873.62,484.782L62.903,-70.246M873.668,493.661L62.95,-61.367M873.717,502.541L63,-52.487M873.766,511.42L63.049,-43.609M873.814,520.301L63.097,-34.727M873.864,529.179L63.147,-25.848M873.91,538.06L63.194,-16.968M873.961,546.941L63.243,-8.087M874.009,555.819L63.291,0.792M874.057,564.699L63.34,9.671M874.106,573.58L63.389,18.552M874.156,582.459L63.439,27.431M874.203,591.339L63.487,36.311M874.253,600.221L63.536,45.194M874.302,609.098L63.584,54.07M874.349,617.978L63.632,62.951M874.398,626.858L63.681,71.83M874.448,635.737L63.731,80.71M874.496,644.62L63.779,89.591M874.543,653.492L63.828,98.468M874.596,662.38L63.877,107.349M874.641,671.259L63.924,116.231M874.69,680.137L63.973,125.11M874.737,689.015L64.02,133.99M874.791,697.903L64.072,142.87M874.838,706.781L64.12,151.748M874.886,715.659L64.168,160.629M874.934,724.537L64.216,169.51M874.983,733.414L64.266,178.387M875.03,742.292L64.314,187.269M875.082,751.181L64.363,196.149M875.129,760.059L64.412,205.029M875.178,768.937L64.46,213.909M875.228,777.814L64.51,222.788M875.274,786.693L64.559,231.668M875.322,795.571L64.606,240.547M875.375,804.459L64.656,249.428M875.422,813.337L64.705,258.308M875.47,822.215L64.753,267.187M875.518,831.093L64.801,276.067M875.566,839.971L64.851,284.948M875.617,848.86L64.899,293.827M875.666,857.737L64.948,302.706M875.714,866.615L64.996,311.585M875.761,875.493L65.045,320.466M875.811,884.371L65.095,329.347M875.859,893.249L65.142,338.224M875.909,902.138L65.192,347.105M875.958,911.015L65.24,355.987M876.007,919.893L65.289,364.864M876.053,928.771L65.337,373.747M876.106,937.66L65.387,382.628M876.153,946.538L65.433,391.506M876.201,955.416L65.484,400.384M876.249,964.294L65.532,409.265M876.297,973.172L65.58,418.145M876.346,982.049L65.63,427.025M876.393,990.927L65.678,435.903M876.445,999.816L65.726,444.784M876.494,1008.69L65.777,453.665M876.542,1017.57L65.825,462.543M876.589,1026.45L65.872,471.424M876.637,1035.33L65.921,480.303M876.686,1044.2L65.971,489.183M876.736,1053.1L66.017,498.065M876.786,1061.97L66.068,506.943M876.833,1070.85L66.117,515.822M876.881,1079.73L66.164,524.704M876.931,1088.61L66.214,533.583M876.981,1097.49L66.263,542.462M877.029,1106.37L66.31,551.342M877.077,1115.25L66.359,560.22M877.126,1124.13L66.41,569.102M877.174,1133.01L66.457,577.981M877.221,1141.88L66.504,586.859M877.274,1150.77L66.557,595.741M877.32,1159.65L66.603,604.621M877.37,1168.53L66.652,613.5" style="fill:none;fill-rule:nonzero;stroke:rgb(0,156,209);stroke-width:2.35px;"/></g></g></g></g><g><g><g><clipPath id="_clip3"><path d="M732.377,431.333L774.576,343.249L769.811,521.545L732.377,431.333Z"/></clipPath><g clip-path="url(#_clip3)"><g transform="matrix(0.9848,-0.173692,0.173692,0.9848,-90.7929,187.648)"><path d="M1402.93,796.641L1167.74,-157.299M1397.06,803.303L1161.86,-150.637M1391.18,809.958L1155.99,-143.983M1385.3,816.614L1150.11,-137.326M1379.42,823.273L1144.23,-130.667M1373.55,829.93L1138.36,-124.01M1367.67,836.587L1132.48,-117.354M1361.79,843.241L1126.6,-110.699M1355.91,849.899L1120.72,-104.041M1350.04,856.556L1114.84,-97.384M1344.16,863.214L1108.97,-90.725M1338.29,869.871L1103.09,-84.069M1332.41,876.527L1097.21,-77.414M1326.53,883.184L1091.34,-70.756M1320.65,889.841L1085.46,-64.1M1314.78,896.498L1079.58,-57.442M1308.9,903.155L1073.71,-50.785M1303.02,909.811L1067.83,-44.129M1297.14,916.47L1061.95,-37.471M1291.27,923.125L1056.08,-30.815M1285.39,929.782L1050.2,-24.159M1279.51,936.44L1044.32,-17.501M1273.64,943.097L1038.44,-10.844M1267.76,949.753L1032.57,-4.187M1261.88,956.412L1026.69,2.472M1256.01,963.067L1020.81,9.126M1250.13,969.723L1014.94,15.784M1244.25,976.38L1009.06,22.44M1238.38,983.037L1003.18,29.098M1232.5,989.696L997.304,35.756M1226.62,996.346L991.429,42.41M1220.74,1003.01L985.552,49.068M1214.87,1009.67L979.673,55.726M1208.99,1016.32L973.797,62.382M1203.11,1022.98L967.918,69.038M1197.24,1029.64L962.043,75.698M1191.36,1036.3L956.166,82.352M1185.48,1042.95L950.289,89.009M1179.6,1049.61L944.41,95.667M1173.73,1056.26L938.536,102.323M1167.85,1062.92L932.656,108.98M1161.97,1069.58L926.78,115.638M1156.1,1076.24L920.903,122.295M1150.22,1082.89L915.026,128.952M1144.35,1089.55L909.15,135.609M1138.47,1096.2L903.273,142.265M1132.59,1102.86L897.396,148.921M1126.71,1109.52L891.518,155.58M1120.83,1116.18L885.642,162.237M1114.96,1122.83L879.765,168.893M1109.08,1129.49L873.887,175.55M1103.2,1136.14L868.01,182.208M1097.32,1142.81L862.132,188.864M1091.45,1149.46L856.256,195.52M1085.57,1156.12L850.379,202.176M1079.69,1162.77L844.502,208.834M1073.82,1169.43L838.625,215.493M1067.94,1176.08L832.749,222.146M1062.06,1182.75L826.872,228.805M1056.19,1189.4L820.993,235.463M1050.31,1196.06L815.118,242.118M1044.43,1202.71L809.239,248.777M1038.55,1209.38L803.362,255.435M1032.68,1216.03L797.484,262.089M1026.8,1222.69L791.609,268.746M1020.92,1229.34L785.731,275.403M1015.05,1236L779.854,282.06M1009.17,1242.65L773.978,288.718M1003.3,1249.31L768.101,295.373M997.415,1255.98L762.223,302.03M991.539,1262.63L756.347,308.689M985.662,1269.29L750.47,315.344M979.786,1275.94L744.591,322.001M973.909,1282.6L738.715,328.658M968.034,1289.25L732.839,335.316M962.152,1295.91L726.959,341.972M956.277,1302.57L721.084,348.629M950.4,1309.23L715.208,355.286M944.523,1315.88L709.328,361.943M938.649,1322.54L703.453,368.601M932.767,1329.2L697.577,375.257M926.891,1335.86L691.698,381.913M921.015,1342.51L685.822,388.569M915.139,1349.17L679.946,395.229M909.263,1355.82L674.067,401.884M903.386,1362.48L668.191,408.539M897.506,1369.14L662.315,415.199M891.628,1375.8L656.436,421.855M885.754,1382.45L650.56,428.512" style="fill:none;fill-rule:nonzero;stroke:rgb(248,198,35);stroke-width:2.35px;"/></g></g></g></g></g></g><g transform="matrix(1,0,0,1,1.17644,-2.35289)"><g><g><clipPath id="_clip4"><path d="M751.369,244.777C739.785,243.652 728.12,243.652 716.537,244.777L710.8,272.706C699.697,274.405 688.816,277.321 678.351,281.401L659.419,260.082C648.824,264.899 638.722,270.732 629.253,277.498L638.249,304.554C629.484,311.576 621.518,319.542 614.495,328.308L587.44,319.311C580.673,328.78 574.84,338.883 570.023,349.477L591.342,368.41C587.262,378.874 584.346,389.756 582.647,400.858L554.719,406.595C553.593,418.179 553.593,429.844 554.719,441.427L582.647,447.164C584.346,458.267 587.262,469.148 591.342,479.613L570.023,498.545C574.84,509.14 580.673,519.242 587.44,528.711L614.495,519.715C621.518,528.48 629.484,536.446 638.249,543.469L629.253,570.524C638.722,577.291 648.824,583.123 659.419,587.94L678.351,566.622C688.816,570.702 699.697,573.618 710.8,575.316L716.537,603.245C728.12,604.371 739.785,604.371 751.369,603.245L757.106,575.316C768.208,573.618 779.09,570.702 789.554,566.622L808.487,587.94C819.081,583.123 829.184,577.291 838.652,570.524L829.656,543.469C838.422,536.446 846.388,528.48 853.41,519.715L880.466,528.711C887.232,519.242 893.065,509.14 897.882,498.545L876.563,479.613C880.643,469.148 883.559,458.267 885.258,447.164L913.187,441.427C914.312,429.844 914.312,418.179 913.187,406.595L885.258,400.858C883.559,389.756 880.643,378.874 876.563,368.41L897.882,349.477C893.065,338.883 887.232,328.78 880.466,319.311L853.41,328.308C846.388,319.542 838.422,311.576 829.656,304.554L838.652,277.498C829.184,270.732 819.081,264.899 808.487,260.082L789.554,281.401C779.09,277.321 768.208,274.405 757.106,272.706L751.369,244.777ZM733.953,297.381C803.842,297.381 860.583,354.122 860.583,424.011C860.583,493.9 803.842,550.642 733.953,550.642C664.064,550.642 607.322,493.9 607.322,424.011C607.322,354.122 664.064,297.381 733.953,297.381Z"/></clipPath><g clip-path="url(#_clip4)"><g transform="matrix(1.67421,0.473774,-0.309559,1.09392,-377.051,-475.228)"><path d="M420.217,362.062L760.649,920.859M423.394,356.982L763.83,915.779M426.571,351.905L767.01,910.702M429.749,346.828L770.181,905.624M432.926,341.75L773.362,900.546M436.103,336.672L776.533,895.468M439.281,331.594L779.714,890.39M442.459,326.518L782.894,885.313M445.637,321.44L786.075,880.236M448.814,316.361L789.246,875.158M451.991,311.282L792.427,870.079M455.169,306.205L795.608,865.002M458.346,301.128L798.779,859.924M461.523,296.05L801.959,854.847M464.7,290.972L805.131,849.769M467.879,285.894L808.311,844.691M471.055,280.817L811.492,839.614M474.235,275.739L814.673,834.536M477.411,270.66L817.844,829.457M480.588,265.583L821.024,824.38M483.767,260.506L824.205,819.303M486.945,255.427L827.376,814.224M490.121,250.35L830.557,809.147M493.299,245.271L833.738,804.068M496.477,240.193L836.909,798.989M499.653,235.117L840.089,793.914M502.832,230.038L843.27,788.835M506.009,224.96L846.441,783.757M509.186,219.884L849.622,778.68M512.365,214.805L852.803,773.601M515.541,209.729L855.974,768.525M518.718,204.65L859.154,763.447M521.897,199.572L862.335,758.368M525.075,194.495L865.506,753.292M528.253,189.417L868.687,748.214M531.429,184.338L871.867,743.135M534.607,179.262L875.039,738.059M537.784,174.183L878.219,732.98M540.962,169.105L881.4,727.902M544.14,164.028L884.571,722.825M547.318,158.95L887.752,717.746M550.495,153.872L890.932,712.669M553.672,148.794L894.104,707.591M556.849,143.716L897.284,702.512M560.026,138.638L900.465,697.435M563.205,133.561L903.636,692.358M566.383,128.483L906.817,687.28M569.56,123.405L909.997,682.202M572.737,118.327L913.169,677.123M575.914,113.25L916.349,672.047M579.092,108.172L919.53,666.968M582.27,103.095L922.701,661.89M585.449,98.017L925.882,656.813M588.625,92.939L929.062,651.735M591.802,87.862L932.234,646.658M594.979,82.784L935.414,641.58M598.156,77.705L938.595,636.502M601.335,72.629L941.766,631.426M604.513,67.551L944.947,626.347M607.691,62.472L948.127,621.269M610.866,57.395L951.299,616.191M614.046,52.316L954.479,611.113M617.222,47.237L957.66,606.033M620.401,42.161L960.841,600.958M623.579,37.083L964.012,595.88M626.755,32.006L967.192,590.802M629.933,26.927L970.364,585.724M633.11,21.848L973.544,580.645M636.288,16.773L976.725,575.569M639.465,11.694L979.896,570.491M642.643,6.615L983.077,565.412M645.82,1.539L986.257,560.336M648.999,-3.539L989.438,555.258M652.175,-8.617L992.609,550.18M655.352,-13.694L995.79,545.102M658.532,-18.773L998.971,540.023M661.709,-23.85L1002.14,534.946M664.886,-28.927L1005.32,529.869M668.064,-34.006L1008.5,524.791M671.241,-39.084L1011.67,519.713M674.418,-44.161L1014.86,514.636M677.596,-49.239L1018.03,509.558M680.773,-54.316L1021.21,504.481M683.95,-59.395L1024.39,499.402M687.128,-64.472L1027.56,494.325M690.306,-69.549L1030.74,489.247M693.482,-74.628L1033.92,484.169M696.661,-79.706L1037.1,479.09M699.838,-84.783L1040.27,474.014" style="fill:none;fill-rule:nonzero;stroke:rgb(248,198,35);stroke-width:1.61px;"/></g></g></g></g></g></g><g><g><g><clipPath id="_clip5"><path d="M66.521,-95.317C162.136,-95.317 239.763,-17.106 239.763,79.228C239.763,175.562 162.136,253.773 66.521,253.773C-29.094,253.773 -106.722,175.562 -106.722,79.228C-106.722,-17.106 -29.094,-95.317 66.521,-95.317ZM66.521,-51.681C138.232,-51.681 196.453,6.977 196.453,79.228C196.453,151.478 138.232,210.136 66.521,210.136C-5.191,210.136 -63.411,151.478 -63.411,79.228C-63.411,6.977 -5.191,-51.681 66.521,-51.681Z"/></clipPath><g clip-path="url(#_clip5)"><path d="M-443.104,-276.961L-40.98,765.299M-436.224,-284.531L-34.093,757.729M-429.343,-292.101L-27.206,750.159M-422.461,-299.671L-20.335,742.589M-415.58,-307.241L-13.448,735.019M-408.7,-314.811L-6.577,727.449M-401.818,-322.371L0.31,719.889M-394.935,-329.931L7.196,712.329M-388.053,-337.501L14.082,704.759M-381.172,-345.071L20.954,697.189M-374.291,-352.641L27.841,689.619M-367.409,-360.211L34.727,682.049M-360.529,-367.781L41.598,674.479M-353.647,-375.351L48.485,666.909M-346.767,-382.921L55.356,659.339M-339.883,-390.481L62.243,651.779M-333.004,-398.051L69.129,644.209M-326.119,-405.621L76.016,636.639M-319.24,-413.191L82.887,629.069M-312.358,-420.751L89.774,621.509M-305.475,-428.321L96.66,613.939M-298.593,-435.891L103.532,606.369M-291.714,-443.461L110.418,598.799M-284.832,-451.031L117.305,591.229M-277.949,-458.601L124.176,583.659M-271.07,-466.161L131.062,576.099M-264.186,-473.731L137.949,568.529M-257.305,-481.301L144.82,560.959M-250.425,-488.861L151.707,553.399M-243.541,-496.431L158.594,545.829M-236.663,-503.991L165.465,538.269M-229.781,-511.561L172.351,530.699M-222.897,-519.131L179.238,523.129M-216.015,-526.701L186.109,515.559M-209.133,-534.271L192.995,507.989M-202.254,-541.841L199.882,500.419M-195.371,-549.411L206.753,492.849M-188.49,-556.981L213.64,485.279M-181.608,-564.551L220.527,477.709M-174.727,-572.121L227.398,470.139M-167.844,-579.691L234.285,462.569M-160.964,-587.261L241.171,454.999M-154.082,-594.831L248.042,447.429M-147.201,-602.401L254.929,439.859M-140.321,-609.971L261.816,432.289M-133.438,-617.541L268.687,424.719M-126.556,-625.111L275.573,417.149M-119.675,-632.681L282.46,409.579M-112.794,-640.251L289.331,402.009M-105.913,-647.811L296.218,394.449M-99.031,-655.381L303.104,386.879M-92.149,-662.951L309.976,379.309M-85.265,-670.511L316.862,371.749M-78.386,-678.081L323.749,364.179M-71.505,-685.641L330.62,356.619M-64.624,-693.211L337.506,349.049M-57.743,-700.781L344.393,341.479M-50.86,-708.341L351.264,333.919M-43.978,-715.911L358.151,326.349M-37.096,-723.481L365.038,318.779M-30.217,-731.051L371.909,311.209M-23.332,-738.621L378.796,303.639M-16.452,-746.191L385.683,296.069M-9.569,-753.751L392.569,288.509M-2.687,-761.321L399.44,280.939M4.193,-768.891L406.326,273.369M11.075,-776.461L413.198,265.799M17.956,-784.031L420.085,258.229M24.837,-791.591L426.971,250.669M31.718,-799.161L433.842,243.099M38.6,-806.731L440.729,235.529M45.482,-814.291L447.615,227.969M52.365,-821.861L454.502,220.399M59.244,-829.431L461.373,212.829M66.125,-837.001L468.26,205.259M73.01,-844.571L475.147,197.689M79.89,-852.141L482.018,190.119M86.772,-859.701L488.904,182.559M93.654,-867.271L495.791,174.989M100.535,-874.841L502.662,167.419M107.415,-882.401L509.548,159.859M114.297,-889.971L516.435,152.289M121.177,-897.541L523.306,144.719M128.06,-905.111L530.193,137.149M134.941,-912.681L537.064,129.579M141.823,-920.241L543.95,122.019M148.702,-927.811L550.837,114.449M155.586,-935.381L557.724,106.879M162.466,-942.951L564.595,99.309" style="fill:none;fill-rule:nonzero;stroke:rgb(248,198,35);stroke-width:2.84px;"/></g></g></g></g><g transform="matrix(1,0,0,1,24.5577,76.3044)"><g><g><clipPath id="_clip6"><path d="M1454.46,129.292C1550.07,129.292 1627.7,207.503 1627.7,303.837C1627.7,400.171 1550.07,478.382 1454.46,478.382C1358.84,478.382 1281.22,400.171 1281.22,303.837C1281.22,207.503 1358.84,129.292 1454.46,129.292ZM1454.46,172.928C1526.17,172.928 1584.39,231.586 1584.39,303.837C1584.39,376.087 1526.17,434.746 1454.46,434.746C1382.75,434.746 1324.53,376.087 1324.53,303.837C1324.53,231.586 1382.75,172.928 1454.46,172.928Z"/></clipPath><g clip-path="url(#_clip6)"><path d="M944.835,-52.351L1346.96,989.909M951.714,-59.921L1353.85,982.339M958.596,-67.491L1360.73,974.769M965.478,-75.061L1367.6,967.199M972.358,-82.631L1374.49,959.629M979.239,-90.201L1381.36,952.059M986.121,-97.761L1388.25,944.499M993.004,-105.321L1395.13,936.939M999.886,-112.891L1402.02,929.369M1006.77,-120.461L1408.89,921.799M1013.65,-128.031L1415.78,914.229M1020.53,-135.601L1422.67,906.659M1027.41,-143.171L1429.54,899.089M1034.29,-150.741L1436.42,891.519M1041.17,-158.311L1443.3,883.949M1048.06,-165.871L1450.18,876.389M1054.93,-173.441L1457.07,868.819M1061.82,-181.011L1463.95,861.249M1068.7,-188.581L1470.83,853.679M1075.58,-196.141L1477.71,846.119M1082.46,-203.711L1484.6,838.549M1089.35,-211.281L1491.47,830.979M1096.23,-218.841L1498.36,823.419M1103.11,-226.411L1505.24,815.849M1109.99,-233.981L1512.12,808.279M1116.87,-241.541L1519,800.719M1123.75,-249.111L1525.89,793.149M1130.63,-256.681L1532.76,785.579M1137.51,-264.241L1539.65,778.019M1144.4,-271.811L1546.53,770.449M1151.28,-279.371L1553.4,762.889M1158.16,-286.941L1560.29,755.319M1165.04,-294.511L1567.18,747.749M1171.92,-302.081L1574.05,740.179M1178.81,-309.651L1580.93,732.609M1185.68,-317.221L1587.82,725.039M1192.57,-324.791L1594.69,717.469M1199.45,-332.361L1601.58,709.899M1206.33,-339.931L1608.47,702.329M1213.21,-347.501L1615.34,694.759M1220.09,-355.071L1622.22,687.189M1226.98,-362.641L1629.11,679.619M1233.86,-370.211L1635.98,672.049M1240.74,-377.781L1642.87,664.479M1247.62,-385.351L1649.76,656.909M1254.5,-392.921L1656.62,649.339M1261.38,-400.491L1663.51,641.769M1268.26,-408.061L1670.4,634.199M1275.14,-415.631L1677.27,626.629M1282.03,-423.191L1684.16,619.069M1288.91,-430.761L1691.04,611.499M1295.79,-438.331L1697.91,603.929M1302.67,-445.891L1704.8,596.369M1309.55,-453.461L1711.69,588.799M1316.43,-461.021L1718.56,581.239M1323.32,-468.591L1725.44,573.669M1330.2,-476.161L1732.33,566.099M1337.08,-483.721L1739.2,558.539M1343.96,-491.291L1746.09,550.969M1350.84,-498.861L1752.98,543.399M1357.72,-506.431L1759.85,535.829M1364.61,-514.001L1766.73,528.259M1371.49,-521.571L1773.62,520.689M1378.37,-529.131L1780.51,513.129M1385.25,-536.701L1787.38,505.559M1392.13,-544.271L1794.27,497.989M1399.01,-551.841L1801.14,490.419M1405.89,-559.411L1808.02,482.849M1412.78,-566.971L1814.91,475.289M1419.66,-574.541L1821.78,467.719M1426.54,-582.111L1828.67,460.149M1433.42,-589.671L1835.55,452.589M1440.3,-597.241L1842.44,445.019M1447.18,-604.811L1849.31,437.449M1454.06,-612.381L1856.2,429.879M1460.95,-619.951L1863.09,422.309M1467.83,-627.521L1869.96,414.739M1474.71,-635.081L1876.84,407.179M1481.59,-642.651L1883.73,399.609M1488.47,-650.221L1890.6,392.039M1495.35,-657.791L1897.49,384.469M1502.24,-665.361L1904.37,376.899M1509.12,-672.931L1911.25,369.329M1516,-680.501L1918.13,361.759M1522.88,-688.071L1925,354.189M1529.76,-695.631L1931.89,346.629M1536.64,-703.201L1938.78,339.059M1543.53,-710.771L1945.66,331.489M1550.4,-718.341L1952.53,323.919" style="fill:none;fill-rule:nonzero;stroke:rgb(248,198,35);stroke-width:2.84px;"/></g></g></g></g><g transform="matrix(1,0,0,1,-1130.53,364.858)"><g><clipPath id="_clip7"><path d="M1132.25,11.232C1164.25,11.232 1190.23,37.704 1190.23,70.31C1190.23,102.917 1164.25,129.389 1132.25,129.389C1100.25,129.389 1074.27,102.917 1074.27,70.31C1074.27,37.704 1100.25,11.232 1132.25,11.232ZM1132.25,40.771C1148.25,40.771 1161.24,54.007 1161.24,70.31C1161.24,86.614 1148.25,99.849 1132.25,99.849C1116.25,99.849 1103.26,86.614 1103.26,70.31C1103.26,54.007 1116.25,40.771 1132.25,40.771Z"/></clipPath><g clip-path="url(#_clip7)"><path d="M904.339,66.153L1139.87,676.616M908.369,61.719L1143.9,672.186M912.399,57.289L1147.94,667.756M916.43,52.858L1151.96,663.326M920.46,48.427L1156,658.896M924.49,43.996L1160.02,654.466M928.521,39.564L1164.05,650.036M932.553,35.135L1168.09,645.606M936.584,30.704L1172.12,641.176M940.614,26.272L1176.14,636.736M944.644,21.839L1180.18,632.306M948.675,17.409L1184.21,627.876M952.705,12.978L1188.24,623.446M956.736,8.547L1192.27,619.016M960.766,4.116L1196.3,614.586M964.797,-0.315L1200.33,610.156M968.826,-4.746L1204.36,605.726M972.859,-9.177L1208.4,601.296M976.888,-13.609L1212.42,596.856M980.919,-18.04L1216.45,592.426M984.951,-22.47L1220.49,587.996M988.982,-26.902L1224.51,583.566M993.011,-31.333L1228.55,579.136M997.042,-35.765L1232.58,574.706M1001.07,-40.196L1236.61,570.276M1005.1,-44.626L1240.64,565.846M1009.13,-49.057L1244.67,561.416M1013.17,-53.489L1248.7,556.976M1017.19,-57.919L1252.73,552.546M1021.23,-62.35L1256.76,548.116M1025.26,-66.781L1260.79,543.686M1029.29,-71.212L1264.82,539.256M1033.32,-75.644L1268.86,534.826M1037.35,-80.074L1272.88,530.396M1041.38,-84.505L1276.91,525.966M1045.41,-88.937L1280.95,521.536M1049.44,-93.367L1284.97,517.106M1053.47,-97.799L1289.01,512.666M1057.5,-102.23L1293.04,508.236M1061.53,-106.661L1297.06,503.806M1065.56,-111.093L1301.1,499.376M1069.59,-115.523L1305.13,494.946M1073.62,-119.954L1309.15,490.516M1077.65,-124.386L1313.19,486.086M1081.68,-128.818L1317.22,481.656M1085.72,-133.247L1321.25,477.226M1089.75,-137.679L1325.28,472.786M1093.78,-142.111L1329.31,468.356M1097.81,-146.542L1333.34,463.926M1101.84,-150.972L1337.37,459.496M1105.87,-155.404L1341.41,455.066M1109.9,-159.834L1345.43,450.636M1113.93,-164.265L1349.46,446.206M1117.96,-168.697L1353.5,441.776M1121.99,-173.126L1357.52,437.336M1126.02,-177.559L1361.56,432.916M1130.05,-181.991L1365.59,428.476M1134.08,-186.42L1369.61,424.046M1138.11,-190.851L1373.65,419.616M1142.14,-195.283L1377.68,415.186M1146.17,-199.714L1381.7,410.756M1150.21,-204.146L1385.74,406.326M1154.24,-208.579L1389.77,401.886M1158.27,-213.008L1393.81,397.466M1162.3,-217.439L1397.83,393.026M1166.33,-221.869L1401.86,388.596M1170.36,-226.301L1405.89,384.166M1174.39,-230.733L1409.92,379.736M1178.42,-235.162L1413.96,375.306M1182.45,-239.594L1417.98,370.876M1186.48,-244.026L1422.02,366.446M1190.51,-248.456L1426.05,362.016M1194.54,-252.887L1430.08,357.586M1198.57,-257.319L1434.11,353.146M1202.6,-261.749L1438.14,348.716M1206.64,-266.181L1442.17,344.286M1210.66,-270.612L1446.2,339.856M1214.7,-275.042L1450.23,335.426M1218.73,-279.474L1454.27,330.996M1222.76,-283.905L1458.29,326.566M1226.79,-288.336L1462.32,322.136M1230.82,-292.767L1466.36,317.706M1234.85,-297.198L1470.38,313.276M1238.88,-301.63L1474.41,308.836M1242.91,-306.06L1478.44,304.406M1246.94,-310.491L1482.47,299.976M1250.97,-314.923L1486.51,295.546M1255,-319.355L1490.54,291.116M1259.03,-323.785L1494.57,286.686" style="fill:none;fill-rule:nonzero;stroke:rgb(248,198,35);stroke-width:1.66px;"/></g></g></g><g><g><clipPath id="_clip8"><path d="M446.992,101.88C478.222,101.88 503.576,127.608 503.576,159.298C503.576,190.989 478.222,216.718 446.992,216.718C415.762,216.718 390.408,190.989 390.408,159.298C390.408,127.608 415.762,101.88 446.992,101.88ZM446.992,144.944C454.796,144.944 461.138,151.376 461.138,159.298C461.138,167.221 454.796,173.653 446.992,173.653C439.181,173.653 432.846,167.221 432.846,159.298C432.846,151.376 439.181,144.944 446.992,144.944Z"/></clipPath><g clip-path="url(#_clip8)"><path d="M216.709,108.679L388.807,554.744M219.646,105.44L391.752,551.499M222.598,102.202L394.697,548.262M225.543,98.966L397.641,545.025M228.487,95.727L400.586,541.788M231.432,92.489L403.531,538.551M234.377,89.252L406.475,535.315M237.321,86.015L409.42,532.078M240.266,82.777L412.372,528.841M243.211,79.539L415.309,525.604M246.155,76.3L418.254,522.359M249.1,73.063L421.206,519.123M252.045,69.826L424.143,515.886M254.989,66.588L427.095,512.649M257.934,63.35L430.033,509.412M260.879,60.112L432.985,506.175M263.823,56.874L435.929,502.938M266.775,53.637L438.874,499.701M269.713,50.398L441.819,496.457M272.657,47.161L444.763,493.227M275.609,43.924L447.708,489.99M278.554,40.686L450.653,486.746M281.499,37.448L453.597,483.509M284.443,34.21L456.549,480.272M287.388,30.971L459.487,477.035M290.333,27.735L462.431,473.798M293.277,24.497L465.383,470.561M296.222,21.259L468.321,467.324M299.167,18.022L471.265,464.087M302.111,14.784L474.217,460.843M305.056,11.547L477.155,457.606M308.001,8.308L480.107,454.369M310.945,5.07L483.051,451.132M313.89,1.834L485.996,447.895M316.842,-1.405L488.941,444.658M319.779,-4.643L491.885,441.421M322.731,-7.879L494.83,438.184M325.676,-11.118L497.775,434.947M328.621,-14.356L500.719,431.71M331.565,-17.593L503.664,428.466M334.51,-20.831L506.609,425.229M337.455,-24.069L509.561,421.992M340.399,-27.307L512.498,418.755M343.344,-30.545L515.443,415.518M346.289,-33.783L518.395,412.281M349.233,-37.02L521.332,409.044M352.178,-40.257L524.284,405.807M355.123,-43.496L527.229,402.563M358.067,-46.734L530.166,399.326M361.012,-49.97L533.118,396.089M363.957,-53.209L536.063,392.852M366.909,-56.447L539.008,389.615M369.853,-59.684L541.952,386.379M372.798,-62.922L544.897,383.142M375.743,-66.159L547.842,379.905M378.687,-69.397L550.786,376.668M381.632,-72.636L553.738,373.431M384.577,-75.872L556.676,370.186M387.521,-79.11L559.62,366.95M390.466,-82.349L562.572,363.713M393.411,-85.586L565.51,360.476M396.355,-88.824L568.454,357.239M399.3,-92.063L571.406,354.002M402.245,-95.299L574.351,350.765M405.189,-98.537L577.296,347.528M408.134,-101.775L580.24,344.291M411.086,-105.013L583.185,341.047M414.031,-108.252L586.13,337.81M416.975,-111.488L589.074,334.573M419.92,-114.726L592.019,331.336M422.865,-117.965L594.964,328.099M425.809,-121.202L597.908,324.862M428.754,-124.439L600.86,321.625M431.699,-127.677L603.798,318.388M434.643,-130.915L606.75,315.151M437.588,-134.152L609.694,311.907M440.533,-137.39L612.632,308.67M443.477,-140.627L615.584,305.433M446.422,-143.865L618.528,302.196M449.367,-147.104L621.473,298.959M452.311,-150.341L624.418,295.721M455.256,-153.579L627.362,292.484M458.201,-156.816L630.307,289.246M461.153,-160.054L633.252,286.008M464.09,-163.292L636.189,282.77M467.042,-166.529L639.141,279.533M469.979,-169.767L642.086,276.295M472.931,-173.006L645.038,273.057M475.876,-176.243L647.975,269.819" style="fill:none;fill-rule:nonzero;stroke:rgb(248,198,35);stroke-width:1.21px;"/></g></g></g></g></g></g></g><g transform="matrix(0.447509,0,0,0.435122,1177.09,-181.595)"><clipPath id="_clip9"><path d="M140.84,655.844C132.773,655.078 124.649,655.078 116.582,655.844L112.587,674.868C104.855,676.025 97.276,678.011 89.989,680.79L76.804,666.269C69.426,669.55 62.39,673.523 55.796,678.132L62.061,696.561C55.956,701.344 50.409,706.77 45.518,712.741L26.676,706.613C21.964,713.063 17.902,719.944 14.547,727.16L29.394,740.056C26.552,747.184 24.522,754.596 23.339,762.159L3.889,766.066C3.105,773.956 3.105,781.902 3.889,789.792L23.339,793.7C24.522,801.262 26.552,808.674 29.394,815.802L14.547,828.698C17.902,835.915 21.964,842.796 26.676,849.246L45.518,843.118C50.409,849.088 55.956,854.514 62.061,859.298L55.796,877.727C62.39,882.336 69.426,886.309 76.804,889.59L89.989,875.068C97.276,877.847 104.855,879.834 112.587,880.991L116.582,900.014C124.649,900.781 132.773,900.781 140.84,900.014L144.835,880.991C152.567,879.834 160.145,877.847 167.433,875.068L180.618,889.59C187.996,886.309 195.032,882.336 201.626,877.727L195.361,859.298C201.466,854.514 207.013,849.088 211.904,843.118L230.746,849.246C235.458,842.796 239.52,835.915 242.875,828.698L228.028,815.802C230.869,808.674 232.9,801.262 234.083,793.7L253.533,789.792C254.317,781.902 254.317,773.956 253.533,766.066L234.083,762.159C232.9,754.596 230.869,747.184 228.028,740.056L242.875,727.16C239.52,719.944 235.458,713.063 230.746,706.613L211.904,712.741C207.013,706.77 201.466,701.344 195.361,696.561L201.626,678.132C195.032,673.523 187.996,669.55 180.618,666.269L167.433,680.79C160.145,678.011 152.567,676.025 144.835,674.868L140.84,655.844ZM128.711,753.397C142.554,753.397 153.793,764.39 153.793,777.929C153.793,791.469 142.554,802.461 128.711,802.461C114.868,802.461 103.629,791.469 103.629,777.929C103.629,764.39 114.868,753.397 128.711,753.397Z"/></clipPath><g clip-path="url(#_clip9)"><g><clipPath id="_clip10"><rect x="-175.006" y="590.272" width="466.622" height="466.622"/></clipPath><g clip-path="url(#_clip10)"><g transform="matrix(0.967177,0.254102,-0.254102,0.967177,207.259,12.1414)"><path d="M378.908,812.613L-99.058,189.618L378.908,812.613ZM377.018,819.598L-100.947,196.603L377.018,819.598ZM375.124,826.579L-102.841,203.584L375.124,826.579ZM373.231,833.56L-104.735,210.566L373.231,833.56ZM371.338,840.545L-106.627,217.55L371.338,840.545ZM369.447,847.526L-108.519,224.531L369.447,847.526ZM367.553,854.509L-110.413,231.514L367.553,854.509ZM365.659,861.49L-112.306,238.494L365.659,861.49ZM363.765,868.473L-114.2,245.478L363.765,868.473ZM361.872,875.456L-116.093,252.46L361.872,875.456ZM359.981,882.438L-117.984,259.444L359.981,882.438ZM358.087,889.421L-119.878,266.426L358.087,889.421ZM356.194,896.402L-121.772,273.407L356.194,896.402ZM354.301,903.385L-123.664,280.39L354.301,903.385ZM352.408,910.366L-125.557,287.371L352.408,910.366ZM350.515,917.35L-127.451,294.355L350.515,917.35ZM348.623,924.331L-129.343,301.336L348.623,924.331ZM346.728,931.314L-131.237,308.319L346.728,931.314ZM344.836,938.297L-133.13,315.302L344.836,938.297ZM342.942,945.278L-135.023,322.284L342.942,945.278ZM341.049,952.261L-136.916,329.265L341.049,952.261ZM339.156,959.244L-138.81,336.249L339.156,959.244ZM337.265,966.226L-140.701,343.231L337.265,966.226ZM335.37,973.208L-142.595,350.213L335.37,973.208ZM333.478,980.193L-144.488,357.197L333.478,980.193ZM331.585,987.172L-146.381,364.177L331.585,987.172ZM329.69,994.155L-148.275,371.161L329.69,994.155ZM327.798,1001.14L-150.167,378.142L327.798,1001.14ZM325.906,1008.12L-152.06,385.125L325.906,1008.12ZM324.012,1015.1L-153.953,392.108L324.012,1015.1ZM322.119,1022.08L-155.846,399.088L322.119,1022.08ZM320.227,1029.07L-157.739,406.071L320.227,1029.07ZM318.332,1036.05L-159.633,413.055L318.332,1036.05ZM316.439,1043.03L-161.526,420.036L316.439,1043.03ZM314.546,1050.01L-163.42,427.019L314.546,1050.01ZM312.655,1057L-165.311,434.002L312.655,1057ZM310.761,1063.98L-167.204,440.983L310.761,1063.98ZM308.868,1070.96L-169.098,447.966L308.868,1070.96ZM306.974,1077.94L-170.992,454.949L306.974,1077.94ZM305.082,1084.92L-172.883,461.93L305.082,1084.92ZM303.188,1091.9L-174.778,468.913L303.188,1091.9ZM301.296,1098.89L-176.67,475.896L301.296,1098.89ZM299.402,1105.88L-178.563,482.878L299.402,1105.88ZM297.509,1112.86L-180.456,489.861L297.509,1112.86ZM295.618,1119.84L-182.348,496.842L295.618,1119.84ZM293.723,1126.82L-184.242,503.825L293.723,1126.82ZM291.83,1133.8L-186.135,510.806L291.83,1133.8ZM289.938,1140.79L-188.028,517.79L289.938,1140.79ZM288.044,1147.77L-189.92,524.772L288.044,1147.77ZM286.151,1154.75L-191.814,531.754L286.151,1154.75ZM284.258,1161.73L-193.708,538.736L284.258,1161.73ZM282.365,1168.71L-195.6,545.72L282.365,1168.71ZM280.471,1175.7L-197.494,552.701L280.471,1175.7ZM278.579,1182.68L-199.386,559.683L278.579,1182.68ZM276.686,1189.66L-201.28,566.665L276.686,1189.66ZM274.792,1196.64L-203.173,573.648L274.792,1196.64ZM272.901,1203.62L-205.065,580.631L272.901,1203.62ZM271.007,1210.6L-206.959,587.611L271.007,1210.6ZM269.114,1217.59L-208.851,594.595L269.114,1217.59ZM267.221,1224.57L-210.745,601.578L267.221,1224.57ZM265.328,1231.55L-212.638,608.559L265.328,1231.55ZM263.434,1238.53L-214.531,615.543L263.434,1238.53ZM261.542,1245.52L-216.424,622.527L261.542,1245.52ZM259.648,1252.51L-218.318,629.507L259.648,1252.51ZM257.755,1259.49L-220.21,636.489L257.755,1259.49ZM255.862,1266.46L-222.103,643.471L255.862,1266.46ZM253.969,1273.45L-223.997,650.454L253.969,1273.45ZM252.076,1280.43L-225.889,657.436L252.076,1280.43ZM250.183,1287.41L-227.782,664.417L250.183,1287.41ZM248.29,1294.4L-229.676,671.401L248.29,1294.4ZM246.398,1301.38L-231.567,678.384L246.398,1301.38ZM244.504,1308.36L-233.461,685.365L244.504,1308.36ZM242.61,1315.34L-235.355,692.349L242.61,1315.34ZM240.717,1322.32L-237.248,699.33L240.717,1322.32ZM238.825,1329.3L-239.14,706.313L238.825,1329.3ZM236.931,1336.29L-241.035,713.296L236.931,1336.29ZM235.039,1343.27L-242.927,720.278L235.039,1343.27ZM233.145,1350.25L-244.819,727.259L233.145,1350.25ZM231.252,1357.23L-246.714,734.243L231.252,1357.23ZM229.36,1364.21L-248.606,741.225L229.36,1364.21ZM227.467,1371.2L-250.498,748.207L227.467,1371.2ZM225.573,1378.18L-252.393,755.189L225.573,1378.18ZM223.681,1385.16L-254.285,762.17L223.681,1385.16ZM221.788,1392.15L-256.177,769.154L221.788,1392.15ZM219.894,1399.13L-258.072,776.136L219.894,1399.13ZM218.001,1406.11L-259.965,783.117L218.001,1406.11ZM216.109,1413.1L-261.856,790.101L216.109,1413.1ZM214.215,1420.08L-263.75,797.084L214.215,1420.08ZM212.323,1427.06L-265.643,804.065L212.323,1427.06Z" style="fill:rgb(0,156,209);fill-rule:nonzero;"/><g transform="matrix(1.95719,-1.29529e-17,0,1.38603,155.641,-374.23)"><path d="M378.908,812.613L-99.058,189.618M377.018,819.598L-100.947,196.603M375.124,826.579L-102.841,203.584M373.231,833.56L-104.735,210.566M371.338,840.545L-106.627,217.55M369.447,847.526L-108.519,224.531M367.553,854.509L-110.413,231.514M365.659,861.49L-112.306,238.494M363.765,868.473L-114.2,245.478M361.872,875.456L-116.093,252.46M359.981,882.438L-117.984,259.444M358.087,889.421L-119.878,266.426M356.194,896.402L-121.772,273.407M354.301,903.385L-123.664,280.39M352.408,910.366L-125.557,287.371M350.515,917.35L-127.451,294.355M348.623,924.331L-129.343,301.336M346.728,931.314L-131.237,308.319M344.836,938.297L-133.13,315.302M342.942,945.278L-135.023,322.284M341.049,952.261L-136.916,329.265M339.156,959.244L-138.81,336.249M337.265,966.226L-140.701,343.231M335.37,973.208L-142.595,350.213M333.478,980.193L-144.488,357.197M331.585,987.172L-146.381,364.177M329.69,994.155L-148.275,371.161M327.798,1001.14L-150.167,378.142M325.906,1008.12L-152.06,385.125M324.012,1015.1L-153.953,392.108M322.119,1022.08L-155.846,399.088M320.227,1029.07L-157.739,406.071M318.332,1036.05L-159.633,413.055M316.439,1043.03L-161.526,420.036M314.546,1050.01L-163.42,427.019M312.655,1057L-165.311,434.002M310.761,1063.98L-167.204,440.983M308.868,1070.96L-169.098,447.966M306.974,1077.94L-170.992,454.949M305.082,1084.92L-172.883,461.93M303.188,1091.9L-174.778,468.913M301.296,1098.89L-176.67,475.896M299.402,1105.88L-178.563,482.878M297.509,1112.86L-180.456,489.861M295.618,1119.84L-182.348,496.842M293.723,1126.82L-184.242,503.825M291.83,1133.8L-186.135,510.806M289.938,1140.79L-188.028,517.79M288.044,1147.77L-189.92,524.772M286.151,1154.75L-191.814,531.754M284.258,1161.73L-193.708,538.736M282.365,1168.71L-195.6,545.72M280.471,1175.7L-197.494,552.701M278.579,1182.68L-199.386,559.683M276.686,1189.66L-201.28,566.665M274.792,1196.64L-203.173,573.648M272.901,1203.62L-205.065,580.631M271.007,1210.6L-206.959,587.611M269.114,1217.59L-208.851,594.595M267.221,1224.57L-210.745,601.578M265.328,1231.55L-212.638,608.559M263.434,1238.53L-214.531,615.543M261.542,1245.52L-216.424,622.527M259.648,1252.51L-218.318,629.507M257.755,1259.49L-220.21,636.489M255.862,1266.46L-222.103,643.471M253.969,1273.45L-223.997,650.454M252.076,1280.43L-225.889,657.436M250.183,1287.41L-227.782,664.417M248.29,1294.4L-229.676,671.401M246.398,1301.38L-231.567,678.384M244.504,1308.36L-233.461,685.365M242.61,1315.34L-235.355,692.349M240.717,1322.32L-237.248,699.33M238.825,1329.3L-239.14,706.313M236.931,1336.29L-241.035,713.296M235.039,1343.27L-242.927,720.278M233.145,1350.25L-244.819,727.259M231.252,1357.23L-246.714,734.243M229.36,1364.21L-248.606,741.225M227.467,1371.2L-250.498,748.207M225.573,1378.18L-252.393,755.189M223.681,1385.16L-254.285,762.17M221.788,1392.15L-256.177,769.154M219.894,1399.13L-258.072,776.136M218.001,1406.11L-259.965,783.117M216.109,1413.1L-261.856,790.101M214.215,1420.08L-263.75,797.084M212.323,1427.06L-265.643,804.065" style="fill:none;fill-rule:nonzero;stroke:rgb(0,156,209);stroke-opacity:0.62;stroke-width:1.87px;"/></g></g></g></g></g></g><g transform="matrix(1,0,0,1,-7.89355,0)"><clipPath id="_clip11"><path d="M1318.04,624.213C1309.21,623.356 1300.33,623.356 1291.5,624.213C1292.75,637.058 1287.1,644.978 1274.54,647.975C1262.17,651.656 1253.32,647.622 1247.98,635.875C1239.91,639.545 1232.21,643.989 1224.99,649.145C1232.5,659.644 1231.56,669.33 1222.19,678.201C1213.32,687.573 1203.63,688.507 1193.13,681.004C1187.98,688.219 1183.54,695.917 1179.86,703.989C1191.61,709.33 1195.64,718.185 1191.96,730.554C1188.97,743.106 1181.05,748.758 1168.2,747.51C1167.35,756.336 1167.35,765.224 1168.2,774.05C1181.05,772.802 1188.97,778.454 1191.96,791.006C1195.64,803.375 1191.61,812.23 1179.86,817.571C1183.54,825.644 1187.98,833.341 1193.13,840.556C1203.63,833.053 1213.32,833.987 1222.19,843.359C1231.56,852.231 1232.5,861.916 1224.99,872.416C1232.21,877.571 1239.91,882.015 1247.98,885.686C1253.32,873.938 1262.17,869.905 1274.54,873.585C1287.1,876.582 1292.75,884.503 1291.5,897.347C1300.33,898.205 1309.21,898.205 1318.04,897.347C1316.79,884.503 1322.44,876.582 1335,873.585C1347.37,869.905 1356.22,873.938 1361.56,885.686C1369.63,882.015 1377.33,877.571 1384.55,872.416C1377.04,861.916 1377.98,852.231 1387.35,843.359C1396.22,833.987 1405.91,833.053 1416.4,840.556C1421.56,833.341 1426.01,825.644 1429.67,817.571C1417.93,812.23 1413.89,803.375 1417.58,791.006C1420.57,778.454 1428.49,772.802 1441.34,774.05C1442.19,765.224 1442.19,756.336 1441.34,747.51C1428.49,748.758 1420.57,743.106 1417.58,730.554C1413.89,718.185 1417.93,709.33 1429.67,703.989C1426.01,695.917 1421.56,688.219 1416.4,681.004C1405.91,688.507 1396.22,687.573 1387.35,678.201C1377.98,669.33 1377.04,659.644 1384.55,649.145C1377.33,643.989 1369.63,639.545 1361.56,635.875C1356.22,647.622 1347.37,651.656 1335,647.975C1322.44,644.978 1316.79,637.058 1318.04,624.213ZM1304.77,688.099C1344.88,688.099 1377.45,720.666 1377.45,760.78C1377.45,800.894 1344.88,833.462 1304.77,833.462C1264.66,833.462 1232.09,800.894 1232.09,760.78C1232.09,720.666 1264.66,688.099 1304.77,688.099Z"/></clipPath><g clip-path="url(#_clip11)"><g><clipPath id="_clip12"><rect x="945.319" y="302.822" width="644.858" height="671.727"/></clipPath><g clip-path="url(#_clip12)"><g><path d="M2109.45,856.108L1192.04,-339.672L2109.45,856.108ZM2105.82,869.516L1188.41,-326.264L2105.82,869.516ZM2102.19,882.914L1184.78,-312.866L2102.19,882.914ZM2098.55,896.315L1181.14,-299.465L2098.55,896.315ZM2094.92,909.721L1177.51,-286.059L2094.92,909.721ZM2091.29,923.121L1173.88,-272.659L2091.29,923.121ZM2087.66,936.524L1170.24,-259.256L2087.66,936.524ZM2084.02,949.922L1166.61,-245.858L2084.02,949.922ZM2080.38,963.326L1162.98,-232.454L2080.38,963.326ZM2076.75,976.729L1159.34,-219.051L2076.75,976.729ZM2073.12,990.131L1155.71,-205.649L2073.12,990.131ZM2069.49,1003.53L1152.08,-192.247L2069.49,1003.53ZM2065.85,1016.93L1148.44,-178.846L2065.85,1016.93ZM2062.22,1030.34L1144.81,-165.444L2062.22,1030.34ZM2058.59,1043.74L1141.18,-152.043L2058.59,1043.74ZM2054.95,1057.14L1137.54,-138.639L2054.95,1057.14ZM2051.32,1070.54L1133.91,-125.239L2051.32,1070.54ZM2047.68,1083.94L1130.27,-111.837L2047.68,1083.94ZM2044.05,1097.35L1126.64,-98.432L2044.05,1097.35ZM2040.42,1110.75L1123.01,-85.034L2040.42,1110.75ZM2036.78,1124.15L1119.38,-71.631L2036.78,1124.15ZM2033.15,1137.55L1115.74,-58.227L2033.15,1137.55ZM2029.52,1150.95L1112.11,-44.827L2029.52,1150.95ZM2025.88,1164.36L1108.48,-31.425L2025.88,1164.36ZM2022.25,1177.76L1104.84,-18.019L2022.25,1177.76ZM2018.62,1191.16L1101.21,-4.622L2018.62,1191.16ZM2014.98,1204.56L1097.57,8.781L2014.98,1204.56ZM2011.35,1217.96L1093.94,22.183L2011.35,1217.96ZM2007.72,1231.36L1090.31,35.583L2007.72,1231.36ZM2004.08,1244.77L1086.67,48.989L2004.08,1244.77ZM2000.45,1258.16L1083.04,62.389L2000.45,1258.16ZM1996.82,1271.58L1079.41,75.786L1996.82,1271.58ZM1993.18,1284.97L1075.77,89.194L1993.18,1284.97ZM1989.55,1298.37L1072.14,102.593L1989.55,1298.37ZM1985.91,1311.77L1068.5,115.992L1985.91,1311.77ZM1982.28,1325.19L1064.87,129.398L1982.28,1325.19ZM1978.65,1338.59L1061.24,142.797L1978.65,1338.59ZM1975.02,1351.99L1057.61,156.206L1975.02,1351.99ZM1971.38,1365.38L1053.97,169.605L1971.38,1365.38ZM1967.75,1378.78L1050.34,183.003L1967.75,1378.78ZM1964.11,1392.18L1046.7,196.412L1964.11,1392.18ZM1960.48,1405.6L1043.07,209.809L1960.48,1405.6ZM1956.85,1419L1039.44,223.217L1956.85,1419ZM1953.21,1432.4L1035.8,236.616L1953.21,1432.4ZM1949.58,1445.79L1032.17,250.011L1949.58,1445.79ZM1945.95,1459.19L1028.54,263.42L1945.95,1459.19ZM1942.31,1472.59L1024.9,276.819L1942.31,1472.59ZM1938.68,1486.01L1021.27,290.225L1938.68,1486.01ZM1935.05,1499.4L1017.64,303.624L1935.05,1499.4ZM1931.41,1512.8L1014,317.023L1931.41,1512.8ZM1927.78,1526.2L1010.37,330.431L1927.78,1526.2ZM1924.14,1539.6L1006.74,343.83L1924.14,1539.6ZM1920.51,1553.02L1003.1,357.237L1920.51,1553.02ZM1916.88,1566.41L999.469,370.635L1916.88,1566.41ZM1913.24,1579.81L995.834,384.034L1913.24,1579.81ZM1909.61,1593.21L992.202,397.433L1909.61,1593.21ZM1905.98,1606.61L988.569,410.842L1905.98,1606.61ZM1902.35,1620.01L984.934,424.24L1902.35,1620.01ZM1898.71,1633.43L981.302,437.647L1898.71,1633.43ZM1895.08,1646.83L977.667,451.046L1895.08,1646.83ZM1891.44,1660.22L974.034,464.444L1891.44,1660.22ZM1887.81,1673.62L970.4,477.853L1887.81,1673.62ZM1884.18,1687.04L966.767,491.26L1884.18,1687.04ZM1880.54,1700.44L963.131,504.658L1880.54,1700.44ZM1876.91,1713.84L959.5,518.057L1876.91,1713.84ZM1873.27,1727.24L955.866,531.456L1873.27,1727.24ZM1869.64,1740.63L952.231,544.855L1869.64,1740.63ZM1866.01,1754.03L948.6,558.263L1866.01,1754.03ZM1862.37,1767.43L944.966,571.662L1862.37,1767.43ZM1858.74,1780.85L941.331,585.069L1858.74,1780.85ZM1855.11,1794.25L937.7,598.467L1855.11,1794.25ZM1851.47,1807.65L934.066,611.866L1851.47,1807.65ZM1847.84,1821.05L930.43,625.275L1847.84,1821.05ZM1844.2,1834.44L926.797,638.674L1844.2,1834.44ZM1840.57,1847.84L923.166,652.072L1840.57,1847.84ZM1836.94,1861.26L919.528,665.479L1836.94,1861.26ZM1833.31,1874.66L915.897,678.878L1833.31,1874.66ZM1829.67,1888.06L912.264,692.276L1829.67,1888.06ZM1826.04,1901.45L908.628,705.685L1826.04,1901.45ZM1822.41,1914.85L904.997,719.084L1822.41,1914.85ZM1818.77,1928.27L901.364,732.49L1818.77,1928.27ZM1815.14,1941.67L897.728,745.889L1815.14,1941.67ZM1811.51,1955.07L894.095,759.288L1811.51,1955.07ZM1807.87,1968.47L890.464,772.697L1807.87,1968.47ZM1804.24,1981.87L886.828,786.095L1804.24,1981.87ZM1800.6,1995.26L883.194,799.494L1800.6,1995.26ZM1796.97,2008.68L879.565,812.901L1796.97,2008.68ZM1793.34,2022.08L875.928,826.299L1793.34,2022.08ZM1789.71,2035.48L872.296,839.698L1789.71,2035.48Z" style="fill:rgb(248,198,35);fill-rule:nonzero;"/><path d="M2109.45,856.108L1192.04,-339.672M2105.82,869.518L1188.41,-326.262M2102.19,882.918L1184.78,-312.862M2098.55,896.318L1181.14,-299.462M2094.92,909.718L1177.51,-286.062M2091.29,923.118L1173.88,-272.662M2087.66,936.518L1170.24,-259.262M2084.02,949.918L1166.61,-245.862M2080.38,963.318L1162.98,-232.462M2076.75,976.718L1159.34,-219.062M2073.12,990.118L1155.71,-205.662M2069.49,1003.52L1152.08,-192.262M2065.85,1016.92L1148.44,-178.862M2062.22,1030.32L1144.81,-165.462M2058.59,1043.72L1141.18,-152.062M2054.95,1057.12L1137.54,-138.662M2051.32,1070.52L1133.91,-125.262M2047.68,1083.92L1130.27,-111.862M2044.05,1097.32L1126.64,-98.462M2040.42,1110.72L1123.01,-85.062M2036.78,1124.12L1119.38,-71.662M2033.15,1137.52L1115.74,-58.262M2029.52,1150.92L1112.11,-44.862M2025.88,1164.32L1108.48,-31.462M2022.25,1177.73L1104.84,-18.052M2018.62,1191.13L1101.21,-4.652M2014.98,1204.53L1097.57,8.748M2011.35,1217.93L1093.94,22.148M2007.72,1231.33L1090.31,35.548M2004.08,1244.73L1086.67,48.948M2000.45,1258.12L1083.04,62.348M1996.82,1271.54L1079.41,75.748M1993.18,1284.93L1075.77,89.148M1989.55,1298.33L1072.14,102.548M1985.91,1311.73L1068.5,115.948M1982.28,1325.14L1064.87,129.348M1978.65,1338.54L1061.24,142.748M1975.02,1351.94L1057.61,156.158M1971.38,1365.34L1053.97,169.558M1967.75,1378.74L1050.34,182.958M1964.11,1392.14L1046.7,196.368M1960.48,1405.56L1043.07,209.768M1956.85,1418.96L1039.44,223.178M1953.21,1432.36L1035.8,236.578M1949.58,1445.75L1032.17,249.968M1945.95,1459.14L1028.54,263.368M1942.31,1472.54L1024.9,276.768M1938.68,1485.96L1021.27,290.178M1935.05,1499.36L1017.64,303.578M1931.41,1512.76L1014,316.978M1927.78,1526.15L1010.37,330.378M1924.14,1539.55L1006.74,343.778M1920.51,1552.96L1003.1,357.178M1916.88,1566.36L999.469,370.578M1913.24,1579.76L995.834,383.978M1909.61,1593.16L992.202,397.378M1905.98,1606.55L988.569,410.778M1902.35,1619.95L984.934,424.178M1898.71,1633.37L981.302,437.588M1895.08,1646.77L977.667,450.988M1891.44,1660.17L974.034,464.388M1887.81,1673.57L970.4,477.798M1884.18,1686.99L966.767,491.208M1880.54,1700.39L963.131,504.608M1876.91,1713.79L959.5,518.008M1873.27,1727.19L955.866,531.408M1869.64,1740.59L952.231,544.808M1866.01,1753.98L948.6,558.208M1862.37,1767.38L944.966,571.608M1858.74,1780.8L941.331,585.018M1855.11,1794.2L937.7,598.418M1851.47,1807.6L934.066,611.818M1847.84,1821L930.43,625.228M1844.2,1834.4L926.797,638.628M1840.57,1847.8L923.166,652.028M1836.94,1861.21L919.528,665.428M1833.31,1874.61L915.897,678.828M1829.67,1888.01L912.264,692.228M1826.04,1901.4L908.628,705.628M1822.41,1914.8L904.997,719.028M1818.77,1928.21L901.364,732.428M1815.14,1941.61L897.728,745.828M1811.51,1955.01L894.095,759.228M1807.87,1968.41L890.464,772.638M1804.24,1981.81L886.828,786.038M1800.6,1995.21L883.194,799.438M1796.97,2008.63L879.565,812.848M1793.34,2022.03L875.928,826.248M1789.71,2035.43L872.296,839.648" style="fill:none;fill-rule:nonzero;stroke:rgb(248,198,35);stroke-width:3.58px;"/></g></g></g></g></g><g transform="matrix(1,0,0,1.04766,110.51,-2.36821)"><clipPath id="_clip13"><path d="M675.074,749.185C671.193,748.839 667.284,748.839 663.403,749.185L661.48,757.746C657.76,758.267 654.114,759.161 650.608,760.411L644.264,753.876C640.714,755.353 637.329,757.141 634.157,759.215L637.171,767.509C634.234,769.662 631.565,772.104 629.212,774.791L620.147,772.033C617.879,774.936 615.925,778.033 614.311,781.28L621.454,787.084C620.087,790.292 619.11,793.628 618.541,797.031L609.183,798.79C608.806,802.341 608.806,805.917 609.183,809.468L618.541,811.226C619.11,814.63 620.087,817.966 621.454,821.173L614.311,826.977C615.925,830.225 617.879,833.322 620.147,836.225L629.212,833.467C631.565,836.154 634.234,838.596 637.171,840.749L634.157,849.042C637.329,851.117 640.714,852.905 644.264,854.381L650.608,847.846C654.114,849.097 657.76,849.991 661.48,850.512L663.403,859.073C667.284,859.418 671.193,859.418 675.074,859.073L676.996,850.512C680.716,849.991 684.362,849.097 687.868,847.846L694.212,854.381C697.762,852.905 701.147,851.117 704.32,849.042L701.305,840.749C704.242,838.596 706.912,836.154 709.265,833.467L718.33,836.225C720.597,833.322 722.552,830.225 724.166,826.977L717.022,821.173C718.389,817.966 719.366,814.63 719.936,811.226L729.294,809.468C729.671,805.917 729.671,802.341 729.294,798.79L719.936,797.031C719.366,793.628 718.389,790.292 717.022,787.084L724.166,781.28C722.552,778.033 720.597,774.936 718.33,772.033L709.265,774.791C706.912,772.104 704.242,769.662 701.305,767.509L704.32,759.215C701.147,757.141 697.762,755.353 694.212,753.876L687.868,760.411C684.362,759.161 680.716,758.267 676.996,757.746L675.074,749.185ZM669.238,776.348C685.997,776.348 699.603,788.796 699.603,804.129C699.603,819.462 685.997,831.91 669.238,831.91C652.479,831.91 638.873,819.462 638.873,804.129C638.873,788.796 652.479,776.348 669.238,776.348Z"/></clipPath><g clip-path="url(#_clip13)"><g><clipPath id="_clip14"><rect x="563.836" y="704.641" width="175" height="175"/></clipPath><g clip-path="url(#_clip14)"><g><path d="M362.874,1034.76L748.142,1782.75M366.199,1027.76L751.472,1775.75M369.526,1020.75L754.802,1768.75M372.853,1013.75L758.122,1761.75M376.179,1006.75L761.452,1754.74M379.505,999.749L764.772,1747.74M382.832,992.747L768.102,1740.74M386.16,985.747L771.432,1733.74M389.487,978.745L774.762,1726.74M392.813,971.742L778.082,1719.73M396.139,964.739L781.412,1712.73M399.466,957.738L784.742,1705.73M402.792,950.737L788.062,1698.74M406.119,943.735L791.392,1691.74M409.445,936.733L794.712,1684.74M412.773,929.731L798.042,1677.73M416.098,922.73L801.372,1670.73M419.427,915.728L804.702,1663.73M422.752,908.725L808.022,1656.73M426.079,901.724L811.352,1649.73M429.407,894.723L814.682,1642.73M432.734,887.72L818.002,1635.72M436.059,880.719L821.332,1628.72M439.386,873.716L824.662,1621.72M442.713,866.713L827.982,1614.72M446.039,859.714L831.312,1607.72M449.367,852.711L834.642,1600.71M452.693,845.709L837.962,1593.71M456.019,838.709L841.292,1586.71M459.347,831.706L844.622,1579.71M462.672,824.706L847.942,1572.71M465.999,817.703L851.272,1565.71M469.327,810.7L854.602,1558.7M472.654,803.7L857.922,1551.7M475.981,796.698L861.252,1544.7M479.306,789.695L864.582,1537.7M482.634,782.695L867.902,1530.7M485.96,775.692L871.232,1523.69M489.287,768.69L874.562,1516.69M492.614,761.689L877.882,1509.69M495.941,754.686L881.212,1502.69M499.267,747.685L884.542,1495.69M502.594,740.683L887.862,1488.68M505.92,733.68L891.192,1481.68M509.246,726.678L894.522,1474.68M512.574,719.678L897.842,1467.68M515.901,712.676L901.172,1460.68M519.227,705.673L904.502,1453.67M522.553,698.671L907.822,1446.67M525.88,691.671L911.152,1439.67M529.207,684.668L914.482,1432.67M532.534,677.667L917.802,1425.67M535.862,670.665L921.132,1418.67M539.187,663.663L924.462,1411.66M542.514,656.663L927.782,1404.66M545.84,649.66L931.112,1397.66M549.166,642.657L934.442,1390.66M552.494,635.658L937.762,1383.66M555.821,628.655L941.092,1376.65M559.148,621.652L944.422,1369.65M562.473,614.651L947.742,1362.65M565.802,607.648L951.072,1355.65M569.127,600.644L954.402,1348.64M572.455,593.645L957.732,1341.64M575.782,586.643L961.052,1334.64M579.108,579.642L964.382,1327.64M582.435,572.639L967.702,1320.64M585.761,565.636L971.032,1313.64M589.088,558.637L974.362,1306.64M592.414,551.634L977.682,1299.63M595.741,544.631L981.012,1292.63M599.068,537.631L984.342,1285.63M602.396,530.629L987.672,1278.63M605.721,523.627L990.992,1271.63M609.047,516.626L994.322,1264.62M612.376,509.623L997.652,1257.62M615.702,502.622L1000.97,1250.62M619.029,495.621L1004.3,1243.62M622.356,488.618L1007.63,1236.62M625.682,481.616L1010.95,1229.62M629.008,474.615L1014.28,1222.62M632.335,467.613L1017.61,1215.61M635.661,460.612L1020.93,1208.61M638.988,453.609L1024.26,1201.61M642.315,446.608L1027.58,1194.61M645.642,439.607L1030.91,1187.61M648.967,432.604L1034.24,1180.6M652.295,425.601L1037.57,1173.6M655.621,418.601L1040.89,1166.6" style="fill:none;fill-rule:nonzero;stroke:rgb(192,226,245);stroke-width:2px;"/></g></g></g></g></g></g></svg>