<svg width="168" height="168" viewBox="0 0 168 168" fill="none" xmlns="http://www.w3.org/2000/svg">
<mask id="mask0_404_3420" style="mask-type:luminance" maskUnits="userSpaceOnUse" x="0" y="0" width="138" height="168">
<path d="M0 0H137.333V167.802H0V0Z" fill="white"/>
</mask>
<g mask="url(#mask0_404_3420)">
<path d="M135.417 152.536L81.2502 8.78125C81.2189 8.6875 81.1772 8.59375 81.1408 8.49479C79.021 3.33333 74.047 0 68.4741 0H68.4585C62.8804 0.005208 57.9064 3.34896 55.797 8.52083C55.7606 8.59896 55.7345 8.68229 55.7033 8.76042L1.04181 152.505C-1.00506 157.88 1.68765 163.901 7.05744 165.948C12.422 167.995 18.4324 165.297 20.4741 159.922L30.7189 132.984C31.2085 131.688 32.4533 130.828 33.8439 130.828H102.698C104.089 130.828 105.333 131.693 105.828 132.995L115.964 159.891C117.531 164.062 121.49 166.63 125.693 166.63C126.912 166.63 128.151 166.411 129.36 165.958C134.735 163.927 137.443 157.917 135.417 152.536ZM41.1876 105.453L65.3022 42.0417C66.396 39.1562 70.4741 39.1615 71.5574 42.0521L95.4533 105.464C96.2814 107.656 94.6616 110 92.3231 110H44.3126C41.9689 110 40.3543 107.646 41.1876 105.453Z" fill="#009CD1"/>
</g>
<mask id="mask1_404_3420" style="mask-type:luminance" maskUnits="userSpaceOnUse" x="128" y="127" width="40" height="41">
<path d="M128 127.802H167.927V167.802H128V127.802Z" fill="white"/>
</mask>
<g mask="url(#mask1_404_3420)">
<path d="M163.385 149.604C167.63 153.292 167.864 159.812 163.89 163.792C159.917 167.771 153.406 167.536 149.729 163.286L128.838 139.14L139.281 128.682L163.385 149.604Z" fill="#474F59"/>
</g>
<mask id="mask2_404_3420" style="mask-type:luminance" maskUnits="userSpaceOnUse" x="146" y="146" width="22" height="22">
<path d="M146.667 146.469H167.927V167.802H146.667V146.469Z" fill="white"/>
</mask>
<g mask="url(#mask2_404_3420)">
<path d="M163.385 149.604L160.375 146.995C162.542 150.688 162.073 155.552 158.87 158.76C155.667 161.974 150.807 162.443 147.12 160.271L149.729 163.287C153.406 167.537 159.917 167.771 163.89 163.792C167.864 159.813 167.63 153.292 163.385 149.604Z" fill="#554E56"/>
</g>
<path d="M75.4271 75.6561C89.526 61.2759 112.865 61.1561 127.104 75.3957C139.047 87.3384 140.979 105.521 132.891 119.474C132.073 120.88 132.349 122.661 133.573 123.724L139.281 128.682L128.839 139.14L123.917 133.453C122.859 132.229 121.078 131.906 119.682 132.719C105.75 140.838 87.5938 138.922 75.6615 126.969C61.526 112.812 61.4479 89.9113 75.4271 75.6561Z" fill="#C4E2FF"/>
<path d="M75.4009 101.193C75.4009 104.286 75.9373 107.25 76.9217 110C80.5259 120.047 117.286 123.229 122.036 117.021C125.396 112.635 127.39 107.151 127.39 101.193C127.39 88.6145 118.479 78.1145 106.635 75.6875C104.943 75.3385 90.2707 77.052 85.953 80.25C79.5519 84.9895 75.4009 92.6093 75.4009 101.193Z" fill="white"/>
<path d="M122.036 117.021L106.448 75.651C104.812 75.3281 103.125 75.1562 101.396 75.1562C95.6094 75.1562 90.2708 77.0521 85.9531 80.25L95.4531 105.464C96.2812 107.656 94.6615 110 92.3229 110H76.9219C80.526 120.047 90.1198 127.229 101.396 127.229C109.807 127.229 117.286 123.229 122.036 117.021Z" fill="#F8C623"/>
<path d="M117.094 80.4426C120.401 84.8124 122.37 90.2603 122.37 96.1666C122.37 106.963 115.802 116.229 106.453 120.172C113.875 120.375 120.24 119.37 122.036 117.021C125.396 112.635 127.391 107.151 127.391 101.193C127.391 92.7239 123.349 85.1978 117.094 80.4426Z" fill="#EAF6FF"/>
<path d="M96.375 122.203C90.474 122.203 85.0365 120.234 80.6719 116.922C85.4219 123.188 92.9375 127.229 101.396 127.229C109.807 127.229 117.286 123.229 122.036 117.021L119.005 108.979C114.542 116.875 106.078 122.203 96.375 122.203Z" fill="#FFC344"/>
<path d="M127.391 143.109C126.745 143.109 126.104 142.865 125.615 142.375C124.636 141.391 124.636 139.797 125.615 138.818L138.958 125.453C139.938 124.469 141.526 124.469 142.505 125.453C143.49 126.437 143.49 128.026 142.505 129.01L129.167 142.375C128.672 142.865 128.031 143.109 127.391 143.109Z" fill="#7A6D79"/>
</svg>
