<?xml version="1.0" encoding="UTF-8" standalone="no"?><!DOCTYPE svg PUBLIC "-//W3C//DTD SVG 1.1//EN" "http://www.w3.org/Graphics/SVG/1.1/DTD/svg11.dtd"><svg width="100%" height="100%" viewBox="0 0 138 133" version="1.1" xmlns="http://www.w3.org/2000/svg" xmlns:xlink="http://www.w3.org/1999/xlink" xml:space="preserve" xmlns:serif="http://www.serif.com/" style="fill-rule:evenodd;clip-rule:evenodd;stroke-linejoin:round;stroke-miterlimit:2;"><g><path d="M134.846,53.272L123.981,50.654C123.068,50.435 122.334,49.786 122.029,48.928C121.277,46.821 120.397,44.772 119.39,42.792C118.977,41.978 119.019,41.02 119.501,40.241L125.266,30.984C126.248,29.403 125.991,27.382 124.64,26.081L110.942,12.879C109.591,11.577 107.492,11.326 105.854,12.275L96.247,17.829C95.441,18.296 94.444,18.334 93.599,17.935C91.545,16.969 89.422,16.117 87.235,15.393C86.346,15.098 85.669,14.391 85.441,13.514L82.725,3.042C82.264,1.256 80.596,0 78.685,0L59.315,0C57.404,0 55.736,1.256 55.275,3.042L52.559,13.514C52.331,14.391 51.654,15.098 50.765,15.393C48.579,16.117 46.455,16.969 44.401,17.935C43.556,18.334 42.559,18.296 41.753,17.829L36.602,14.85C35.677,14.316 34.5,14.96 34.5,15.999L34.5,117.004C34.5,118.043 35.677,118.687 36.602,118.15L41.753,115.174C42.559,114.707 43.556,114.669 44.401,115.067C46.455,116.034 48.579,116.886 50.765,117.61C51.654,117.905 52.331,118.612 52.559,119.489L55.275,129.961C55.736,131.747 57.404,133 59.315,133L78.685,133C80.596,133 82.264,131.747 82.725,129.961L85.441,119.489C85.669,118.612 86.346,117.905 87.235,117.61C89.422,116.886 91.545,116.034 93.599,115.067C94.444,114.669 95.441,114.707 96.247,115.174L105.854,120.727C107.492,121.677 109.591,121.426 110.942,120.124L124.64,106.922C125.991,105.621 126.248,103.6 125.266,102.019L119.501,92.762C119.019,91.983 118.977,91.025 119.39,90.208C120.397,88.228 121.277,86.182 122.029,84.075C122.334,83.217 123.068,82.568 123.981,82.349L134.846,79.731C136.7,79.283 138,77.679 138,75.837L138,57.166C138,55.324 136.7,53.719 134.846,53.272Z" style="fill:#f8c623;fill-rule:nonzero;"/></g><g><path d="M134.846,53.272L123.981,50.654C123.068,50.435 122.334,49.785 122.029,48.928C121.283,46.833 120.405,44.795 119.408,42.824C120.834,47.806 121.594,53.056 121.594,58.473C121.594,90.901 94.318,117.192 60.668,117.192C55.047,117.192 49.603,116.456 44.434,115.082C46.476,116.043 48.59,116.889 50.765,117.61C51.654,117.905 52.328,118.612 52.559,119.489L55.275,129.961C55.736,131.747 57.404,133.003 59.315,133.003L78.685,133.003C80.596,133.003 82.264,131.747 82.725,129.961L85.441,119.489C85.669,118.612 86.346,117.905 87.235,117.61C89.418,116.886 91.545,116.034 93.599,115.067C94.444,114.669 95.441,114.707 96.247,115.174L105.854,120.727C107.492,121.677 109.588,121.426 110.942,120.124L124.637,106.922C125.991,105.621 126.248,103.6 125.266,102.019L119.501,92.762C119.016,91.986 118.977,91.025 119.39,90.211C120.396,88.231 121.277,86.182 122.029,84.075C122.334,83.217 123.068,82.568 123.978,82.349L134.843,79.731C136.697,79.283 138,77.679 138,75.837L138,57.166C138,55.324 136.7,53.719 134.846,53.272Z" style="fill:#ffc344;fill-rule:nonzero;"/><circle cx="68.826" cy="66.413" r="34.361" style="fill:#c0e2f5;"/></g><path d="M92.198,41.889C96.84,47.552 99.613,54.707 99.613,62.488C99.613,80.851 84.166,95.738 65.113,95.738C56.182,95.738 48.042,92.465 41.915,87.099C48.234,94.806 58.018,99.75 69,99.75C88.053,99.75 103.5,84.865 103.5,66.5C103.5,56.744 99.14,47.97 92.198,41.889Z" style="fill:#c0e2f5;fill-rule:nonzero;"/><path d="M24.833,58.188L13.98,58.188C13.405,58.188 12.938,57.74 12.938,57.186L12.938,46.723C12.938,46.169 13.405,45.719 13.98,45.719L24.833,45.719C25.408,45.719 25.875,46.169 25.875,46.723L25.875,57.186C25.875,57.74 25.408,58.188 24.833,58.188Z" style="fill:#ffc344;fill-rule:nonzero;"/><path d="M11.895,37.406L1.042,37.406C0.467,37.406 0,36.959 0,36.405L0,25.942C0,25.388 0.467,24.938 1.042,24.938L11.895,24.938C12.47,24.938 12.938,25.388 12.938,25.942L12.938,36.405C12.938,36.959 12.47,37.406 11.895,37.406Z" style="fill:#f8c623;fill-rule:nonzero;"/><path d="M25.18,16.625L17.945,16.625C17.562,16.625 17.25,16.328 17.25,15.958L17.25,8.982C17.25,8.613 17.562,8.313 17.945,8.313L25.18,8.313C25.564,8.313 25.875,8.613 25.875,8.982L25.875,15.958C25.875,16.328 25.564,16.625 25.18,16.625Z" style="fill:#ffc344;fill-rule:nonzero;"/><path d="M24.485,70.656L10.015,70.656C9.248,70.656 8.625,71.257 8.625,71.996L8.625,85.945C8.625,86.684 9.248,87.281 10.015,87.281L24.485,87.281C25.252,87.281 25.875,86.684 25.875,85.945L25.875,71.996C25.875,71.257 25.252,70.656 24.485,70.656Z" style="fill:#f8c623;fill-rule:nonzero;"/><path d="M24.833,108.062L13.98,108.062C13.405,108.062 12.938,108.513 12.938,109.067L12.938,119.53C12.938,120.084 13.405,120.531 13.98,120.531L24.833,120.531C25.408,120.531 25.875,120.084 25.875,119.53L25.875,109.067C25.875,108.513 25.408,108.062 24.833,108.062Z" style="fill:#f8c623;fill-rule:nonzero;"/><path d="M7.93,95.594L0.695,95.594C0.311,95.594 0,95.894 0,96.263L0,103.24C0,103.609 0.311,103.906 0.695,103.906L7.93,103.906C8.314,103.906 8.625,103.609 8.625,103.24L8.625,96.263C8.625,95.894 8.314,95.594 7.93,95.594Z" style="fill:#ffc344;fill-rule:nonzero;"/><path d="M126.057,75.887C125.964,75.887 125.868,75.881 125.772,75.869C124.604,75.719 123.778,74.683 123.933,73.557C124.251,71.234 124.413,68.858 124.413,66.5C124.413,64.145 124.251,61.77 123.933,59.446C123.781,58.318 124.604,57.284 125.772,57.134C126.943,56.987 128.018,57.781 128.171,58.909C128.515,61.409 128.689,63.963 128.689,66.5C128.689,69.037 128.515,71.595 128.171,74.094C128.03,75.13 127.111,75.887 126.057,75.887Z" style="fill:#feb237;fill-rule:nonzero;"/><path d="M103.967,112.62C103.323,112.62 102.692,112.34 102.269,111.812C101.55,110.908 101.727,109.615 102.668,108.923C106.555,106.051 110.038,102.694 113.018,98.948C113.733,98.044 115.078,97.874 116.012,98.564C116.95,99.256 117.129,100.549 116.411,101.453C113.203,105.488 109.454,109.101 105.267,112.196C104.878,112.481 104.423,112.62 103.967,112.62Z" style="fill:#feb237;fill-rule:nonzero;"/><path d="M69,124.026C66.367,124.026 63.717,123.859 61.12,123.53C59.949,123.38 59.126,122.346 59.282,121.218C59.437,120.089 60.51,119.296 61.68,119.443C66.502,120.058 71.497,120.058 76.319,119.443C77.49,119.296 78.565,120.089 78.718,121.218C78.874,122.346 78.05,123.38 76.879,123.53C74.283,123.859 71.632,124.026 69,124.026Z" style="fill:#feb237;fill-rule:nonzero;"/><path d="M76.601,13.577C76.508,13.577 76.415,13.571 76.319,13.557C71.5,12.945 66.499,12.945 61.68,13.557C60.513,13.707 59.434,12.913 59.282,11.785C59.126,10.656 59.949,9.623 61.12,9.473C66.31,8.815 71.689,8.815 76.879,9.473C78.05,9.623 78.874,10.656 78.718,11.785C78.577,12.821 77.658,13.577 76.601,13.577Z" style="fill:#feb237;fill-rule:nonzero;"/><path d="M114.715,34.864C114.071,34.864 113.436,34.584 113.017,34.055C110.037,30.306 106.554,26.949 102.667,24.08C101.73,23.388 101.55,22.095 102.269,21.191C102.988,20.288 104.329,20.118 105.267,20.807C109.453,23.901 113.203,27.515 116.41,31.55C117.129,32.453 116.949,33.747 116.012,34.439C115.626,34.725 115.167,34.864 114.715,34.864Z" style="fill:#feb237;fill-rule:nonzero;"/><path d="M89.116,53.962L100.963,53.962C100.376,52.574 99.694,51.234 98.927,49.947L88.023,49.947C87.101,47.07 85.933,44.397 84.537,42.007C82.647,38.766 80.434,36.206 78.008,34.396C75.136,33.648 72.118,33.25 69,33.25C65.882,33.25 62.864,33.648 59.992,34.396C57.566,36.206 55.353,38.766 53.463,42.007C52.067,44.397 50.9,47.07 49.977,49.947L39.073,49.947C38.306,51.234 37.624,52.574 37.037,53.962L48.884,53.962C48.12,57.301 47.668,60.849 47.545,64.494L34.563,64.494C34.521,65.158 34.5,65.828 34.5,66.5C34.5,67.175 34.521,67.845 34.563,68.509L47.545,68.509C47.668,72.154 48.12,75.699 48.884,79.041L37.037,79.041C37.624,80.429 38.306,81.768 39.073,83.056L49.977,83.056C50.9,85.931 52.067,88.603 53.463,90.996C55.353,94.237 57.566,96.797 59.992,98.607C62.864,99.352 65.882,99.75 69,99.75C72.118,99.75 75.136,99.352 78.008,98.607C80.434,96.797 82.647,94.237 84.537,90.996C85.933,88.606 87.101,85.933 88.023,83.056L98.927,83.056C99.694,81.768 100.376,80.429 100.963,79.041L89.116,79.041C89.88,75.699 90.332,72.154 90.455,68.509L103.437,68.509C103.479,67.845 103.5,67.175 103.5,66.503C103.5,65.828 103.479,65.158 103.437,64.494L90.455,64.494C90.332,60.849 89.88,57.301 89.116,53.962ZM66.919,97.51C63.28,96.696 59.851,93.755 57.093,89.027C56.033,87.209 55.116,85.206 54.353,83.056L66.919,83.056L66.919,97.51ZM66.919,79.041L53.152,79.041C52.331,75.736 51.843,72.183 51.711,68.509L66.919,68.509L66.919,79.041ZM66.919,64.494L51.711,64.494C51.843,60.82 52.334,57.267 53.152,53.962L66.919,53.962L66.919,64.494ZM66.919,49.947L54.353,49.947C55.116,47.797 56.033,45.794 57.093,43.975C59.851,39.248 63.28,36.307 66.919,35.493L66.919,49.947ZM71.081,35.49C74.72,36.307 78.149,39.248 80.907,43.972C81.967,45.794 82.884,47.797 83.647,49.947L71.081,49.947L71.081,35.49ZM80.907,89.027C78.149,93.755 74.72,96.696 71.081,97.51L71.081,83.056L83.647,83.056C82.884,85.206 81.967,87.209 80.907,89.027ZM84.848,79.041L71.081,79.041L71.081,68.509L86.289,68.509C86.157,72.183 85.669,75.736 84.848,79.041ZM71.081,64.494L71.081,53.962L84.848,53.962C85.669,57.267 86.157,60.82 86.289,64.494L71.081,64.494Z" style="fill:#009cd1;fill-rule:nonzero;"/></svg>