<?xml version="1.0" encoding="UTF-8" standalone="no"?><!DOCTYPE svg PUBLIC "-//W3C//DTD SVG 1.1//EN" "http://www.w3.org/Graphics/SVG/1.1/DTD/svg11.dtd"><svg width="100%" height="100%" viewBox="0 0 1254 478" version="1.1" xmlns="http://www.w3.org/2000/svg" xmlns:xlink="http://www.w3.org/1999/xlink" xml:space="preserve" xmlns:serif="http://www.serif.com/" style="fill-rule:evenodd;clip-rule:evenodd;stroke-linejoin:round;stroke-miterlimit:2;"><g><path d="M64.33,389.88L64.33,475.98L53.26,475.98L53.26,437.52L11.19,437.52L11.19,476.02L-0.04,476.02L-0.04,389.92L11.19,389.92L11.19,427.44L53.26,427.44L53.26,389.88L64.33,389.88Z" style="fill:#505050;fill-rule:nonzero;"/><path d="M134.76,467.62L134.76,475.98L129.84,475.98C124.06,475.98 120.24,473.98 118.89,468.11C114.58,473.65 107.7,477.21 98.59,477.21C87.16,477.21 78.3,471.68 78.3,459.63C78.3,448.06 87.16,442.04 99.21,440.81L117.54,439.08L117.54,435.64C117.54,427.28 112.99,422.11 104.74,422.11C96.49,422.11 92.69,427.11 91.46,433.8L80.76,433.8C81.99,421.99 90.6,413.25 104.76,413.25C118.54,413.25 128.38,421 128.38,435.89L128.38,462.58C128.38,466.15 129.98,467.58 133.18,467.58L134.76,467.62ZM117.54,446.96L102.65,448.43C94.65,449.17 89.12,452.74 89.12,459.26C89.12,466.15 94.17,468.6 100.12,468.6C108.24,468.6 117.59,464.3 117.59,452.37L117.54,446.96Z" style="fill:#505050;fill-rule:nonzero;"/><path d="M144.4,414.52L154.12,414.52L155.12,423.01L155.96,423.01C159.16,417.48 163.46,413.29 173.55,413.29L177.12,413.29L177.12,424.12C175.281,423.909 173.43,423.826 171.58,423.87C160.88,423.87 155.1,432.24 155.1,443.8L155.1,476.02L144.4,476.02L144.4,414.52Z" style="fill:#505050;fill-rule:nonzero;"/><path d="M195.65,462.09L195.65,423.22L182.65,423.22L182.65,414.52L186.84,414.52C194.09,414.52 196.68,412.06 196.68,405.42L196.68,397.8L206.52,397.8L206.52,414.52L221.89,414.52L221.89,423.26L206.48,423.26L206.48,460.65C206.48,465.08 208.2,468.4 214.23,468.4C216.318,468.37 218.39,468.033 220.38,467.4L220.38,475.89C217.46,476.766 214.429,477.221 211.38,477.24C198.6,477.21 195.65,469.22 195.65,462.09Z" style="fill:#505050;fill-rule:nonzero;"/><path d="M230.05,414.52L239.77,414.52L240.77,423.01L241.63,423.01C244.83,417.48 249.14,413.29 259.22,413.29L262.79,413.29L262.79,424.12C260.955,423.909 259.107,423.826 257.26,423.87C246.55,423.87 240.77,432.24 240.77,443.8L240.77,476.02L230.07,476.02L230.05,414.52Z" style="fill:#505050;fill-rule:nonzero;"/><path d="M323.58,447.82L277.7,447.82C278.32,459.99 285.45,468.36 296.89,468.36C304.89,468.36 310.89,464.79 313,458.03L323.46,458.03C320.75,470.2 310.54,477.21 296.89,477.21C279.42,477.21 267,464.79 267,445.85C267,425.92 279.79,413.25 296.4,413.25C311.28,413.25 323.83,423.46 323.83,444C323.83,445.23 323.7,446.34 323.58,447.82ZM277.82,439.94L313.37,439.94C313.25,429.37 306.37,422.11 296.37,422.11C286.06,422.11 278.96,429.98 277.82,439.94Z" style="fill:#505050;fill-rule:nonzero;"/><path d="M389.96,447.82L344.05,447.82C344.66,459.99 351.8,468.36 363.23,468.36C371.23,468.36 377.23,464.79 379.35,458.03L389.8,458.03C387.1,470.2 376.89,477.21 363.23,477.21C345.77,477.21 333.35,464.79 333.35,445.85C333.35,425.92 346.14,413.25 362.74,413.25C377.63,413.25 390.17,423.46 390.17,444C390.17,445.23 390.05,446.34 389.96,447.82ZM344.17,439.94L379.75,439.94C379.62,429.37 372.75,422.11 362.75,422.11C352.41,422.11 345.28,429.98 344.17,439.94Z" style="fill:#505050;fill-rule:nonzero;"/><path d="M476.52,477.21C451.79,477.21 435.68,458.76 435.68,433.3C435.68,407.84 451.92,388.65 476.52,388.65C494.84,388.65 509.23,398.99 512.31,416.82L500.5,416.82C497.55,406.12 489.06,398.99 476.64,398.99C458.56,398.99 446.96,414.52 446.96,433.3C446.96,452.61 459.01,466.88 476.48,466.88C489.39,466.88 498.48,459.88 501.81,449.79L513.66,449.79C510.46,466.39 495.58,477.21 476.52,477.21Z" style="fill:#505050;fill-rule:nonzero;"/><path d="M580.13,447.82L534.25,447.82C534.87,459.99 542,468.36 553.44,468.36C561.44,468.36 567.44,464.79 569.55,458.03L580.01,458.03C577.3,470.2 567.09,477.21 553.44,477.21C535.97,477.21 523.55,464.79 523.55,445.85C523.55,425.92 536.34,413.25 552.95,413.25C567.83,413.25 580.38,423.46 580.38,444C580.38,445.23 580.25,446.34 580.13,447.82ZM534.37,439.94L569.96,439.94C569.84,429.37 562.96,422.11 552.96,422.11C542.62,422.11 535.48,429.98 534.37,439.94Z" style="fill:#505050;fill-rule:nonzero;"/><path d="M592.64,414.52L602.36,414.52L603.36,421.9L604.22,421.9C607.54,417.35 612.46,413.29 622.06,413.29C635.22,413.29 644.44,421.66 644.44,437.4L644.44,476.02L633.74,476.02L633.74,439.7C633.74,427.89 627.35,422.7 619.35,422.7C610.99,422.7 603.35,428.11 603.35,440.9L603.35,475.95L592.65,475.95L592.64,414.52Z" style="fill:#505050;fill-rule:nonzero;"/><path d="M664.37,462.09L664.37,423.22L651.37,423.22L651.37,414.52L655.56,414.52C662.81,414.52 665.4,412.06 665.4,405.42L665.4,397.8L675.24,397.8L675.24,414.52L690.61,414.52L690.61,423.26L675.2,423.26L675.2,460.65C675.2,465.08 676.92,468.4 682.95,468.4C685.038,468.37 687.11,468.033 689.1,467.4L689.1,475.89C686.18,476.766 683.149,477.221 680.1,477.24C667.32,477.21 664.37,469.22 664.37,462.09Z" style="fill:#505050;fill-rule:nonzero;"/><path d="M698.77,414.52L708.49,414.52L709.49,423.01L710.35,423.01C713.54,417.48 717.85,413.29 727.94,413.29L731.5,413.29L731.5,424.12C729.665,423.909 727.817,423.826 725.97,423.87C715.27,423.87 709.49,432.24 709.49,443.8L709.49,476.02L698.77,476.02L698.77,414.52Z" style="fill:#505050;fill-rule:nonzero;"/><path d="M792.3,447.82L746.42,447.82C747.04,459.99 754.17,468.36 765.61,468.36C773.61,468.36 779.61,464.79 781.72,458.03L792.18,458.03C789.47,470.2 779.26,477.21 765.61,477.21C748.14,477.21 735.72,464.79 735.72,445.85C735.72,425.92 748.51,413.25 765.12,413.25C780,413.25 792.55,423.46 792.55,444C792.55,445.23 792.42,446.34 792.3,447.82ZM746.54,439.94L782.09,439.94C781.97,429.37 775.09,422.11 765.09,422.11C754.79,422.11 747.65,429.98 746.54,439.94Z" style="fill:#505050;fill-rule:nonzero;"/></g><g><path d="M655.11,124.64C642.69,124.64 634.11,116.52 634.11,105.88L644.67,105.88C645.67,112.95 651.49,114.57 655.06,114.57C657.82,114.57 663.35,113.57 663.35,108.32C663.35,103.53 658.72,101.58 654.09,99.79C646.45,96.79 635.65,93.13 635.65,82.33C635.65,72.75 644.02,66.9 654.17,66.9C665.94,66.9 672.52,74.78 672.52,82.01L662.1,82.01C661.53,78.84 658.04,76.81 653.98,76.81C650.08,76.81 646.83,78.81 646.83,82.33C646.83,85.85 650,87.2 655.52,89.72C661.45,92.4 674.12,95.57 674.12,108.4C674.12,119.04 665.43,124.64 655.11,124.64Z" style="fill:#505050;fill-rule:nonzero;"/><path d="M699.79,124.64C699.702,124.641 699.615,124.642 699.527,124.642C688.396,124.642 679.237,115.482 679.237,104.352C679.237,104.238 679.238,104.124 679.24,104.01C679.239,103.949 679.239,103.888 679.239,103.826C679.239,92.52 688.543,83.216 699.849,83.216C699.979,83.216 700.11,83.218 700.24,83.22C709.482,83.053 717.632,89.49 719.61,98.52L708.61,98.52C707.055,95.184 703.681,93.052 700,93.08C694.32,93.08 689.77,97.63 689.77,103.96C689.77,110.29 694.27,114.82 699.96,114.82C703.406,114.844 706.599,112.965 708.25,109.94L719.36,109.94C716.76,119.61 708.4,124.64 699.79,124.64Z" style="fill:#505050;fill-rule:nonzero;"/><path d="M725.86,72.26C725.865,68.473 728.983,65.359 732.77,65.359C732.8,65.359 732.83,65.36 732.86,65.36C732.86,65.36 732.86,65.36 732.86,65.36C736.602,65.36 739.68,68.439 739.68,72.18C739.68,72.207 739.68,72.233 739.68,72.26C739.632,75.983 736.583,79.032 732.86,79.08C729.087,79.081 725.957,76.032 725.86,72.26ZM738.05,124.26L727.65,124.26L727.65,83.63L738.05,83.63L738.05,124.26Z" style="fill:#505050;fill-rule:nonzero;"/><path d="M785.48,107.02L755.84,107.02C757.06,113.19 762.09,115.47 766.48,115.47C772,115.47 774.35,112.05 774.35,112.05L784.59,112.05C781.741,119.713 774.324,124.776 766.15,124.64C755.15,124.64 745.6,116.28 745.6,103.64C745.6,91 755.11,83.25 765.83,83.25C776.22,83.22 786.78,90.45 785.48,107.02ZM756.48,98.82L774.76,98.82C773.54,94.03 770.21,92.08 766.15,92.08C761.82,91.991 757.901,94.725 756.49,98.82L756.48,98.82Z" style="fill:#505050;fill-rule:nonzero;"/><path d="M831.46,102.23L831.46,124.23L820.65,124.23L820.65,104.66C820.65,103.28 821.65,93.05 813.83,92.66C810.01,92.42 803.19,94.53 803.19,105.17L803.19,124.26L792.47,124.26L792.47,83.63L800.76,83.63L802.14,88.58L803.52,88.58C805.22,86.58 809.04,83.22 815.86,83.22C826.34,83.22 831.46,91.02 831.46,102.23Z" style="fill:#505050;fill-rule:nonzero;"/><path d="M858.96,124.64C858.872,124.641 858.785,124.642 858.697,124.642C847.566,124.642 838.407,115.482 838.407,104.352C838.407,104.238 838.408,104.124 838.41,104.01C838.409,103.949 838.409,103.888 838.409,103.826C838.409,92.52 847.713,83.216 859.019,83.216C859.149,83.216 859.28,83.218 859.41,83.22C868.664,83.035 876.833,89.477 878.81,98.52L867.76,98.52C866.207,95.182 862.832,93.049 859.15,93.08C853.47,93.08 848.92,97.63 848.92,103.96C848.92,110.29 853.47,114.85 859.15,114.85C862.596,114.874 865.789,112.995 867.44,109.97L878.56,109.97C875.96,119.61 867.6,124.64 858.96,124.64Z" style="fill:#505050;fill-rule:nonzero;"/><path d="M924.05,107.02L894.41,107.02C895.63,113.19 900.66,115.47 905.05,115.47C910.57,115.47 912.92,112.05 912.92,112.05L923.16,112.05C920.311,119.713 912.894,124.776 904.72,124.64C893.72,124.64 884.17,116.28 884.17,103.64C884.17,91 893.68,83.25 904.4,83.25C914.79,83.22 925.35,90.45 924.05,107.02ZM895.05,98.82L913.32,98.82C912.1,94.03 908.77,92.08 904.71,92.08C900.383,91.995 896.47,94.729 895.06,98.82L895.05,98.82Z" style="fill:#505050;fill-rule:nonzero;"/><path d="M992.04,116.44L992.04,124.24L989.6,124.24C984.89,124.24 981.6,122.53 980.18,119.04C977.74,122.37 973.68,124.64 967.35,124.64C958.17,124.64 952.35,119.93 952.35,112.64C952.35,99.97 969.65,98.84 977.45,98.43C977.29,93.72 974.69,92.02 970.55,92.02C964.78,92.02 964.37,95.51 964.37,95.51L954.22,95.51C954.95,88.28 960.88,83.24 970.79,83.24C980.45,83.24 987.28,88.04 987.28,99.81L987.28,110.61C987.25,115.3 988.96,116.44 992.04,116.44ZM977.26,107.18L977.26,106.37C969.87,107.18 962.56,108.08 962.56,112.3C962.56,118.52 976.61,117.98 977.26,107.18Z" style="fill:#505050;fill-rule:nonzero;"/><path d="M1037.04,102.23L1037.04,124.23L1026.24,124.23L1026.24,104.66C1026.24,103.28 1027.24,93.05 1019.41,92.66C1015.6,92.42 1008.77,94.53 1008.77,105.17L1008.77,124.26L998.05,124.26L998.05,83.63L1006.34,83.63L1007.72,88.58L1009.1,88.58C1010.8,86.58 1014.62,83.22 1021.44,83.22C1031.96,83.22 1037.04,91.02 1037.04,102.23Z" style="fill:#505050;fill-rule:nonzero;"/><path d="M1083.58,66.57L1083.58,124.24L1075.58,124.24L1074.44,120.34L1073.22,120.34C1070.58,123.211 1066.81,124.784 1062.91,124.64C1052.59,124.64 1043.99,116.2 1043.99,103.93C1043.99,91.66 1052.59,83.22 1062.91,83.22C1066.87,83.082 1070.7,84.687 1073.38,87.61L1073.38,66.61L1083.58,66.57ZM1073.42,103.93C1073.42,97.19 1069.77,93.21 1064.49,93.21C1059.49,93.21 1054.58,96.79 1054.58,103.93C1054.58,111.07 1059.58,114.65 1064.49,114.65C1069.77,114.65 1073.42,110.68 1073.42,103.93Z" style="fill:#505050;fill-rule:nonzero;"/><path d="M673.23,160.66L657.88,160.66L657.88,207.45L646.96,207.45L646.96,160.66L631.64,160.66L631.64,150.59L673.23,150.59L673.23,160.66Z" style="fill:#505050;fill-rule:nonzero;"/><path d="M709.78,190.23L680.13,190.23C681.35,196.4 686.38,198.67 690.77,198.67C696.29,198.67 698.65,195.26 698.65,195.26L708.88,195.26C706.032,202.919 698.621,207.982 690.45,207.85C679.45,207.85 669.9,199.49 669.9,186.85C669.9,174.21 679.4,166.46 690.12,166.46C700.52,166.43 711.08,173.66 709.78,190.23ZM680.78,182.02L699.05,182.02C697.84,177.23 694.51,175.28 690.45,175.28C686.121,175.206 682.208,177.933 680.78,182.02Z" style="fill:#505050;fill-rule:nonzero;"/><path d="M736.02,207.85C735.932,207.851 735.845,207.852 735.757,207.852C724.626,207.852 715.467,198.692 715.467,187.562C715.467,187.448 715.468,187.334 715.47,187.22C715.469,187.159 715.469,187.098 715.469,187.036C715.469,175.73 724.773,166.426 736.079,166.426C736.209,166.426 736.34,166.428 736.47,166.43C745.72,166.233 753.894,172.663 755.88,181.7L744.88,181.7C743.325,178.364 739.951,176.232 736.27,176.26C730.58,176.26 726.04,180.81 726.04,187.14C726.04,193.47 730.58,198.02 736.27,198.02C739.711,198.045 742.899,196.17 744.55,193.15L755.68,193.15C752.96,202.82 744.62,207.85 736.02,207.85Z" style="fill:#505050;fill-rule:nonzero;"/><path d="M801.24,185.43L801.24,207.43L790.36,207.43L790.36,187.87C790.36,183.87 791.01,175.87 783.7,175.87C780.12,175.87 773.22,177.74 773.22,188.38L773.22,207.47L762.34,207.47L762.34,149.78L772.65,149.78L772.65,171.06L774.03,171.06C777.117,167.962 781.359,166.283 785.73,166.43C796.21,166.43 801.24,174.23 801.24,185.43Z" style="fill:#505050;fill-rule:nonzero;"/><path d="M849.81,185.43L849.81,207.43L839.01,207.43L839.01,187.87C839.01,186.49 840.01,176.26 832.19,175.87C828.37,175.63 821.55,177.74 821.55,188.38L821.55,207.47L810.83,207.47L810.83,166.84L819.11,166.84L820.49,171.84L821.87,171.84C824.96,168.277 829.507,166.304 834.22,166.48C844.7,166.43 849.81,174.23 849.81,185.43Z" style="fill:#505050;fill-rule:nonzero;"/><path d="M856.8,187.22C856.8,174.22 866.87,166.43 877.8,166.43C888.73,166.43 898.34,174.31 898.34,187.06C898.34,199.97 888.43,207.85 877.47,207.85C866.51,207.85 856.8,199.97 856.8,187.22ZM887.66,187.14C887.66,180.81 883.93,175.85 877.76,175.85C871.59,175.85 867.44,180.85 867.44,187.14C867.44,193.43 871.58,198.43 877.76,198.43C883.94,198.43 887.66,193.52 887.66,187.14Z" style="fill:#505050;fill-rule:nonzero;"/><rect x="905.29" y="149.78" width="10.56" height="57.67" style="fill:#505050;fill-rule:nonzero;"/><path d="M922.96,187.22C922.96,174.22 933.03,166.43 943.96,166.43C954.89,166.43 964.51,174.31 964.51,187.06C964.51,199.97 954.6,207.85 943.64,207.85C932.68,207.85 922.96,199.97 922.96,187.22ZM953.82,187.14C953.82,180.81 950.09,175.85 943.91,175.85C937.73,175.85 933.6,180.85 933.6,187.14C933.6,193.43 937.74,198.43 943.91,198.43C950.08,198.43 953.78,193.52 953.78,187.14L953.82,187.14Z" style="fill:#505050;fill-rule:nonzero;"/><path d="M1005.6,210.69C1005.28,219.87 996.91,224.09 987.25,224.09C974.66,224.09 967.43,216.87 969.25,208.09L973.88,204.36C971.29,202.903 969.653,200.181 969.58,197.21C969.58,193.88 971.69,191.53 974.58,189.98C971.863,187.482 970.353,183.929 970.44,180.24C970.44,172.44 976.44,166.35 986.68,166.35C989.881,166.274 993.055,166.96 995.94,168.35C998.596,167.113 1000.95,165.311 1002.84,163.07L1007.84,169.81C1005.82,171.097 1003.63,172.106 1001.34,172.81C1002.89,174.932 1003.71,177.494 1003.7,180.12C1003.7,187.83 996.63,194.01 986.4,194.01C984.452,194.031 982.51,193.782 980.63,193.27C979.9,193.675 979.436,194.436 979.41,195.27C979.41,198.2 983.88,197.71 986.64,197.71L992.33,197.71C1001.38,197.78 1005.85,203.87 1005.6,210.69ZM995.6,210.37C995.6,208.18 993.81,206.47 989.26,206.47C986.98,206.47 983.82,206.47 981.46,206.39L978.7,209.31C978.21,211.31 980.24,214.67 987.39,214.67C992.69,214.67 995.62,212.97 995.62,210.37L995.6,210.37ZM980.24,180.08C980.24,183.16 982.44,185.43 987.15,185.43C991.86,185.43 994.05,183.16 994.05,180.08C994.05,177 991.78,174.96 987.15,174.96C982.52,174.96 980.26,176.99 980.26,180.08L980.24,180.08Z" style="fill:#505050;fill-rule:nonzero;"/><path d="M1054.74,166.84L1040.61,208.99C1038.34,215.73 1035.61,224.09 1023.4,224.09C1016.08,224.09 1012.27,221.17 1011.05,219.63L1016.17,212.4C1017.91,213.965 1020.16,214.859 1022.5,214.92C1025.91,214.92 1028.19,213.54 1029.08,210.78L1030.22,207.45L1024.77,207.45L1010.77,166.84L1022.06,166.84L1032.29,196.4L1033.96,196.4L1043.87,166.84L1054.74,166.84Z" style="fill:#505050;fill-rule:nonzero;"/><path d="M646.59,244.12L646.59,256.78L668.27,256.78L668.27,266.78L646.59,266.78L646.59,290.66L635.7,290.66L635.7,233.8L673.14,233.8L673.14,244.12L646.59,244.12Z" style="fill:#505050;fill-rule:nonzero;"/><path d="M714.89,282.85L714.89,290.65L712.46,290.65C707.75,290.65 704.46,288.95 703.04,285.45C700.6,288.78 696.54,291.06 690.2,291.06C681.03,291.06 675.2,286.35 675.2,279.06C675.2,266.39 692.5,265.25 700.3,264.84C700.13,260.13 697.53,258.43 693.39,258.43C687.63,258.43 687.22,261.92 687.22,261.92L677.05,261.92C677.78,254.69 683.71,249.66 693.62,249.66C703.28,249.66 710.1,254.45 710.1,266.23L710.1,277.03C710.1,281.72 711.81,282.85 714.89,282.85ZM700.11,273.6L700.11,272.78C692.72,273.6 685.41,274.49 685.41,278.71C685.41,284.89 699.46,284.4 700.11,273.6Z" style="fill:#505050;fill-rule:nonzero;"/><path d="M738.96,291.06C738.872,291.061 738.785,291.062 738.697,291.062C727.566,291.062 718.407,281.902 718.407,270.772C718.407,270.658 718.408,270.544 718.41,270.43C718.409,270.369 718.409,270.308 718.409,270.246C718.409,258.94 727.713,249.636 739.019,249.636C739.149,249.636 739.28,249.638 739.41,249.64C748.659,249.447 756.83,255.875 758.82,264.91L747.82,264.91C746.266,261.572 742.892,259.436 739.21,259.46C733.53,259.46 728.98,264.01 728.98,270.35C728.98,276.69 733.53,281.23 739.21,281.23C742.654,281.254 745.844,279.38 747.5,276.36L758.62,276.36C755.96,286.02 747.55,291.06 738.96,291.06Z" style="fill:#505050;fill-rule:nonzero;"/><path d="M765.02,238.67C765.025,234.883 768.143,231.769 771.93,231.769C771.96,231.769 771.99,231.77 772.02,231.77C775.763,231.775 778.84,234.857 778.84,238.6C778.84,238.623 778.84,238.647 778.84,238.67C778.807,242.427 775.717,245.504 771.96,245.52C768.199,245.489 765.1,242.431 765.02,238.67ZM777.2,290.67L766.8,290.67L766.8,250.04L777.2,250.04L777.2,290.67Z" style="fill:#505050;fill-rule:nonzero;"/><rect x="786.14" y="232.99" width="10.55" height="57.66" style="fill:#505050;fill-rule:nonzero;"/><path d="M804.49,238.67C804.501,234.881 807.621,231.77 811.41,231.77C811.437,231.77 811.463,231.77 811.49,231.77C815.233,231.775 818.31,234.857 818.31,238.6C818.31,238.623 818.31,238.647 818.31,238.67C818.262,242.393 815.213,245.442 811.49,245.49C807.717,245.491 804.587,242.442 804.49,238.67ZM816.67,290.67L806.28,290.67L806.28,250.04L816.67,250.04L816.67,290.67Z" style="fill:#505050;fill-rule:nonzero;"/><path d="M854.77,287.65C852.082,289.946 848.634,291.162 845.1,291.06C837.31,291.06 830.56,285.78 830.56,277.58L830.56,258.73L822.44,258.73L822.44,250.78L826.5,250.78C826.568,250.783 826.637,250.785 826.705,250.785C829.141,250.785 831.145,248.78 831.145,246.345C831.145,246.223 831.14,246.101 831.13,245.98L831.13,237.86L840.96,237.86L840.96,250.04L851.19,250.04L851.19,258.73L840.96,258.73L840.96,276.93C841.028,279.625 843.263,281.804 845.958,281.804C846.026,281.804 846.093,281.803 846.16,281.8C847.817,281.722 849.432,281.248 850.87,280.42L854.77,287.65Z" style="fill:#505050;fill-rule:nonzero;"/><path d="M857.45,238.67C857.461,234.881 860.581,231.77 864.37,231.77C864.397,231.77 864.423,231.77 864.45,231.77C868.193,231.775 871.27,234.857 871.27,238.6C871.27,238.623 871.27,238.647 871.27,238.67C871.222,242.393 868.173,245.442 864.45,245.49C860.677,245.491 857.547,242.442 857.45,238.67ZM869.63,290.67L859.24,290.67L859.24,250.04L869.63,250.04L869.63,290.67Z" style="fill:#505050;fill-rule:nonzero;"/><path d="M917.07,273.44L887.42,273.44C888.64,279.61 893.67,281.88 898.06,281.88C903.58,281.88 905.94,278.47 905.94,278.47L916.17,278.47C913.322,286.129 905.911,291.192 897.74,291.06C886.74,291.06 877.19,282.69 877.19,270.06C877.19,257.43 886.69,249.68 897.41,249.68C907.81,249.64 918.37,256.87 917.07,273.44ZM888.07,265.23L906.34,265.23C905.13,260.44 901.8,258.49 897.74,258.49C893.411,258.416 889.498,261.143 888.07,265.23Z" style="fill:#505050;fill-rule:nonzero;"/><path d="M939.24,258.25C935.83,258.25 934.37,259.95 934.37,261.66C934.37,264.42 938.03,265.23 940.46,265.72C947.69,267.26 955,269.45 955,278.06C955,286.43 948.1,291.06 939.73,291.06C930.39,291.06 923.16,285.37 922.73,276.76L932.73,276.76C932.97,279.2 934.59,282.37 939.55,282.37C943.69,282.37 944.67,280.18 944.67,278.47C944.67,275.47 941.82,274.57 939.06,273.92C934.27,272.86 923.95,270.92 923.95,261.66C923.95,253.66 931.59,249.66 939.47,249.66C948.56,249.66 954.57,255.18 955.06,262L945.06,262C944.69,260.6 943.39,258.25 939.24,258.25Z" style="fill:#505050;fill-rule:nonzero;"/><path d="M1028.26,273.6C1025.41,284.033 1015.77,291.259 1004.96,291.06C990.09,291.06 979.29,278.88 979.29,262.23C979.29,245.58 990.01,233.39 1004.87,233.39C1015.7,233.208 1025.36,240.423 1028.26,250.86L1015.96,250.86C1013.85,246.31 1010.03,244.12 1004.96,244.12C995.7,244.12 990.42,251.67 990.42,262.23C990.42,272.79 995.78,280.34 1005.12,280.34C1010.12,280.34 1013.81,278.15 1015.92,273.6L1028.26,273.6Z" style="fill:#505050;fill-rule:nonzero;"/><path d="M1032.74,270.43C1032.74,257.43 1042.81,249.64 1053.74,249.64C1064.67,249.64 1074.29,257.52 1074.29,270.27C1074.29,283.18 1064.38,291.06 1053.42,291.06C1042.46,291.06 1032.74,283.18 1032.74,270.43ZM1063.6,270.35C1063.6,264.01 1059.86,259.06 1053.69,259.06C1047.52,259.06 1043.38,264.01 1043.38,270.35C1043.38,276.69 1047.52,281.64 1053.69,281.64C1059.86,281.64 1063.6,276.68 1063.6,270.35Z" style="fill:#505050;fill-rule:nonzero;"/><path d="M1120.05,250.04L1120.05,290.65L1111.96,290.65L1110.5,286.1L1109.44,286.1C1107.82,288.1 1104.24,291.1 1097.58,291.1C1086.78,291.1 1081.26,283.46 1081.26,272.1L1081.26,250.1L1092.26,250.1L1092.26,269.62C1092.26,274.62 1092.67,281.62 1099.65,281.62C1103.23,281.62 1109.08,279.75 1109.08,269.11L1109.08,250.04L1120.05,250.04Z" style="fill:#505050;fill-rule:nonzero;"/><path d="M1168.62,268.64L1168.62,290.64L1157.82,290.64L1157.82,271.08C1157.82,269.7 1158.82,259.46 1151,259.08C1147.18,258.84 1140.36,260.95 1140.36,271.59L1140.36,290.67L1129.64,290.67L1129.64,250.04L1137.96,250.04L1139.34,255.04L1140.72,255.04C1143.81,251.477 1148.36,249.504 1153.07,249.68C1163.51,249.64 1168.62,257.44 1168.62,268.64Z" style="fill:#505050;fill-rule:nonzero;"/><path d="M1196.16,291.06C1196.07,291.061 1195.99,291.062 1195.9,291.062C1184.77,291.062 1175.61,281.902 1175.61,270.772C1175.61,270.658 1175.61,270.544 1175.61,270.43C1175.61,270.369 1175.61,270.308 1175.61,270.246C1175.61,258.94 1184.91,249.636 1196.22,249.636C1196.35,249.636 1196.48,249.638 1196.61,249.64C1205.84,249.476 1213.97,255.897 1215.96,264.91L1204.96,264.91C1203.41,261.572 1200.03,259.436 1196.35,259.46C1190.67,259.46 1186.12,264.01 1186.12,270.35C1186.12,276.69 1190.67,281.23 1196.35,281.23C1199.79,281.254 1202.98,279.38 1204.64,276.36L1215.76,276.36C1213.13,286.02 1204.77,291.06 1196.16,291.06Z" style="fill:#505050;fill-rule:nonzero;"/><path d="M1222.24,238.67C1222.25,234.883 1225.36,231.769 1229.15,231.769C1229.18,231.769 1229.21,231.77 1229.24,231.77C1232.98,231.775 1236.06,234.857 1236.06,238.6C1236.06,238.623 1236.06,238.647 1236.06,238.67C1236.01,242.393 1232.96,245.442 1229.24,245.49C1225.47,245.491 1222.34,242.442 1222.24,238.67ZM1234.42,290.67L1224.02,290.67L1224.02,250.04L1234.42,250.04L1234.42,290.67Z" style="fill:#505050;fill-rule:nonzero;"/><rect x="1243.36" y="232.99" width="10.6" height="57.66" style="fill:#505050;fill-rule:nonzero;"/></g><path d="M95.43,179.02C117.08,176.82 137.09,165.14 143.15,144.86L143.15,196.66C136.04,184.66 119.69,179.08 95.43,179.02ZM147.43,214.07C147.43,232.95 136.6,243.8 115.63,247.66L143.18,283.75L143.18,268.11L182.3,268.11L182.3,201.57L145.43,201.57C146.798,205.593 147.464,209.821 147.4,214.07L147.43,214.07ZM95.43,201.57L64.89,201.57L64.89,226.73L95.43,226.73C107.99,226.73 113.08,221.73 113.08,214.07C113.08,206.41 107.96,201.57 95.43,201.57ZM176.53,179.02L221.4,179.02L176.53,131.1L176.53,179.02ZM286.29,35.87L286.29,322.16L-0.04,322.16L-0.04,35.87L286.29,35.87ZM254.78,67.38L221.4,67.38L176.53,115.17L176.53,67.38L111.68,67.38L111.68,130.82C111.68,144.4 101.62,152.28 88.28,152.28C74.94,152.28 64.89,144.4 64.89,130.82L64.89,67.38L31.51,67.38L31.51,131.3C31.51,159.93 54.62,176.35 80.69,179.02L31.51,179.02L31.51,290.66L64.89,290.66L64.89,249.28L79.47,249.28L110.32,290.66L254.78,290.66L254.78,268.11L215.66,268.11L215.66,201.57L254.78,201.57L254.78,172.11L206.96,123.12L254.8,74.28L254.78,67.38Z" style="fill:#505050;fill-rule:nonzero;"/><path d="M313.52,35.92L286.29,0L286.29,322.16L572.55,322.16L572.55,35.92L313.52,35.92ZM296.31,312.14L296.31,29.81L300.96,35.92L305.56,41.99L308.56,45.99L483.87,276.32L501.87,299.97L501.87,162.64L562.54,162.64L562.54,312.14L296.31,312.14ZM491.84,152.61L491.84,270.25L321.14,45.94L562.53,45.94L562.53,152.61L491.84,152.61Z" style="fill:#505050;fill-rule:nonzero;"/></svg>